solid OpenSCAD_Model
  facet normal -0 0 1
    outer loop
      vertex 0 20 20
      vertex 20 0 20
      vertex 20 20 20
    endloop
  endfacet
  facet normal 0 0 1
    outer loop
      vertex 20 0 20
      vertex 0 20 20
      vertex 0 0 20
    endloop
  endfacet
  facet normal 0 0 -1
    outer loop
      vertex 0 0 0
      vertex 20 20 0
      vertex 20 0 0
    endloop
  endfacet
  facet normal -0 0 -1
    outer loop
      vertex 20 20 0
      vertex 0 0 0
      vertex 0 20 0
    endloop
  endfacet
  facet normal 0 -1 0
    outer loop
      vertex 0 0 0
      vertex 20 0 20
      vertex 0 0 20
    endloop
  endfacet
  facet normal 0 -1 -0
    outer loop
      vertex 20 0 20
      vertex 0 0 0
      vertex 20 0 0
    endloop
  endfacet
  facet normal 1 -0 0
    outer loop
      vertex 20 0 20
      vertex 20 20 0
      vertex 20 20 20
    endloop
  endfacet
  facet normal 1 0 0
    outer loop
      vertex 20 20 0
      vertex 20 0 20
      vertex 20 0 0
    endloop
  endfacet
  facet normal 0 1 -0
    outer loop
      vertex 20 20 0
      vertex 0 20 20
      vertex 20 20 20
    endloop
  endfacet
  facet normal 0 1 0
    outer loop
      vertex 0 20 20
      vertex 20 20 0
      vertex 0 20 0
    endloop
  endfacet
  facet normal -1 0 0
    outer loop
      vertex 0 0 0
      vertex 0 20 20
      vertex 0 20 0
    endloop
  endfacet
  facet normal -1 -0 0
    outer loop
      vertex 0 20 20
      vertex 0 0 0
      vertex 0 0 20
    endloop
  endfacet
  facet normal -0 0 1
    outer loop
      vertex 10 30 30
      vertex 30 10 30
      vertex 30 30 30
    endloop
  endfacet
  facet normal 0 0 1
    outer loop
      vertex 30 10 30
      vertex 10 30 30
      vertex 10 10 30
    endloop
  endfacet
  facet normal 0 0 -1
    outer loop
      vertex 10 10 10
      vertex 30 30 10
      vertex 30 10 10
    endloop
  endfacet
  facet normal -0 0 -1
    outer loop
      vertex 30 30 10
      vertex 10 10 10
      vertex 10 30 10
    endloop
  endfacet
  facet normal 0 -1 0
    outer loop
      vertex 10 10 10
      vertex 30 10 30
      vertex 10 10 30
    endloop
  endfacet
  facet normal 0 -1 -0
    outer loop
      vertex 30 10 30
      vertex 10 10 10
      vertex 30 10 10
    endloop
  endfacet
  facet normal 1 -0 0
    outer loop
      vertex 30 10 30
      vertex 30 30 10
      vertex 30 30 30
    endloop
  endfacet
  facet normal 1 0 0
    outer loop
      vertex 30 30 10
      vertex 30 10 30
      vertex 30 10 10
    endloop
  endfacet
  facet normal 0 1 -0
    outer loop
      vertex 30 30 10
      vertex 10 30 30
      vertex 30 30 30
    endloop
  endfacet
  facet normal 0 1 0
    outer loop
      vertex 10 30 30
      vertex 30 30 10
      vertex 10 30 10
    endloop
  endfacet
  facet normal -1 0 0
    outer loop
      vertex 10 10 10
      vertex 10 30 30
      vertex 10 30 10
    endloop
  endfacet
  facet normal -1 -0 0
    outer loop
      vertex 10 30 30
      vertex 10 10 10
      vertex 10 10 30
    endloop
  endfacet
endsolid OpenSCAD_Model
