<?xml version="1.0" encoding="utf-8"?>
<svg version="1.0" xmlns="http://www.w3.org/2000/svg" width="333.000000pt" height="334.000000pt" viewBox="0 0 333.000000 334.000000" preserveAspectRatio="xMidYMid meet">
  <g transform="translate(0.000000,334.000000) scale(0.100000,-0.100000)" fill="#000000" stroke="none">
    <path d="M 0 1670 L 0 0 L 1665 0 L 3330 0 L 3330 1670 L 3330 3340 L 1665 3340 L 0 3340 L 0 1670 Z M 1825 2648 C 2027 2606 2191 2493 2321 2305 C 2344 2272 2373 2246 2404 2230 C 2494 2183 2540 2084 2547 1915 C 2558 1689 2489 1520 2376 1491 C 2340 1482 2328 1473 2307 1438 C 2273 1379 2173 1279 2106 1236 C 2067 1211 2026.981 1203.116 1969.981 1192.116 C 1867.981 1172.116 1767.039 1148.155 1577.039 1093.155 C 1310.039 1016.155 1120.628 1002.623 1140 1042 C 1142.649 1047.384 1159 1090 1181 1134 L 1223 1214 L 1184 1244 C 1123 1290 1032 1387 996 1444 C 970 1484 954 1498 919 1510 C 864 1529 808 1600 786 1681 C 777 1713 767 1790 763 1852 C 759 1943 761 1976 775 2025 C 815 2161 864 2232 929 2250 C 967 2260 978.258 2297.854 1059.681 2392.739 C 1090.565 2428.73 1105 2440 1116 2451 C 1202 2547 1433 2653 1580 2663 C 1648 2667 1769 2660 1825 2648 Z M 520 2137 C 520 2125 504 2093 485 2065 C 444 2008 410 1907 410 1845 C 410 1783 443 1685 485 1625 C 524 1568 523 1540 484 1540 C 454 1540 405 1610 374 1699 C 327 1832 355 2017 436 2117 C 477 2166 520 2177 520 2137 Z M 2875 2098 C 2931 2032 2953 1964 2958 1845 C 2962 1722 2948 1666 2889 1576 C 2850 1518 2824 1502 2802 1523 C 2788 1537 2791 1545 2828 1602 C 2880 1681 2904 1772 2897 1858 C 2893 1907 2882 1941 2846 2012 C 2820 2062 2801 2109 2804 2117 C 2813 2140 2847 2131 2875 2098 Z M 593 2068 C 601 2056 596 2040 572 2005 C 536 1950 515 1865 524 1806 C 528 1784 544 1741 560 1711 C 594 1649 596 1638 574 1619 C 559 1607 553 1610 524 1644 C 476 1700 457 1764 461 1863 C 464 1930 471 1956 495 2003 C 535 2084 569 2106 593 2068 Z M 2794 2023 C 2835 1962 2850 1904 2850 1816 C 2850 1726 2829 1666 2783 1618 C 2725 1557 2705 1596 2749 1684 C 2805 1793 2802 1881 2738 1983 C 2713 2022 2710 2033 2720 2045 C 2741 2070 2768 2062 2794 2023 Z M 668 1982 C 670 1969 665 1951 656 1942 C 648 1932 636 1904 629 1879 C 618 1837 619 1830 645 1771 C 673 1710 673 1707 656 1694 C 592 1648 533 1825 574 1935 C 601 2005 661 2034 668 1982 Z M 2730 1925 C 2760 1864 2761 1793 2732 1728 C 2708 1673 2675 1650 2653 1673 C 2640 1686 2641 1692 2659 1728 C 2692 1793 2695 1839 2670 1898 C 2645 1957 2649 1983 2682 1978 C 2698 1976 2713 1960 2730 1925 Z M 2668 1156 C 2788 1139 2820 1129 2820 1104 C 2820 1041 2635 798 2509 697 C 2430 633 2290 543 2217 510 C 2124 468 1931 412 1832 399 C 1723 384 1495 393 1380 415 C 1067 477 785 660 583 932 C 499 1045 500 1083 586 1061 C 964 966 1281 968 1611 1070 C 1751 1113 1892 1146 1995 1160 C 2045 1166 2092 1173 2100 1175 C 2136 1184 2566 1169 2668 1156 Z"/>
    <path d="M1526 2608 c-183 -50 -332 -157 -428 -307 -40 -63 -35 -72 15 -24 87 83 224 164 332 197 60 18 178 24 279 15 191 -18 324 -79 458 -210 43 -42 78 -72 78 -66 0 26 -72 139 -125 195 -91 98 -205 167 -330 201 -75 20 -204 20 -279 -1z"/>
    <path d="M 1558 2400 C 1366 2367 1205 2274 1096 2131 C 1030 2046 1015.097 2003.891 1004.719 1960.056 C 990.484 1899.931 988.592 1855.192 995 1809 C 1008.644 1710.644 1057 1587 1099 1525 C 1136 1470 1274 1402 1424 1363 C 1638 1309 1883 1332 2080 1426 C 2169 1468 2183 1480 2225 1545 C 2306 1672 2340 1843 2305 1951 C 2284 2015 2264 2051 2193 2147 C 2083 2298 1902 2388 1685 2402 C 1641 2405 1584 2404 1558 2400 Z M 1319 2224 C 1347 2204 1345 2167 1310 2075 C 1247 1907 1289 1650 1401 1509 C 1418 1487 1420 1479 1411 1461 C 1396 1434 1349 1433 1277 1460 C 1125 1517 1037 1726 1074 1940 C 1102 2099 1191 2222 1290 2239 C 1293 2240 1306 2233 1319 2224 Z"/>
  </g>
</svg>