<?xml version="1.0" encoding="utf-8"?>
<svg version="1.1" width="245px" height="272px" style="shape-rendering:geometricPrecision; text-rendering:geometricPrecision; image-rendering:optimizeQuality; fill-rule:evenodd; clip-rule:evenodd" id="svg175" xmlns="http://www.w3.org/2000/svg">
  <g id="g113" transform="translate(0.48)"/>
  <g id="g117">
    <path id="path115" style="opacity:1" d="M 66 3.5 C 51.009 4.008 43 14 36 34 C 33 42 23 46 16 51 C 6.9 58 7.5 63 18 67 C 28 69 33.682 68.568 44.682 67.568 C 44.682 76.568 48 86 47 96 C 37 120 35 140 40 170 C 44.114 191.727 75.442 220.578 98.578 219.784 L 100 220 L 100 240 C 97 240 90.568 247.409 87 250 C 86.191 250.588 87 260 90 260 L 170 260 L 170 250 L 160 240 L 160 220 L 170 220 C 190 220 210 210 220 190 C 230 170 261.943 95.987 240 109.568 L 220 120 L 240 92 C 245.613 84.238 230 88 220 94 C 210 100 200 110 180 120 C 160 130 133.67 116.762 120 110 C 109.784 105.251 100 98 99 88 C 97 70 100 51 99 33 C 98.295 21.648 92 13 83 7 C 76.864 2.109 72.375 3.284 66 3.5 Z M 125.682 219.568 L 135.682 219.568 L 135.682 239.568 L 125.682 239.568 L 125.682 219.568 Z"/>
  </g>
  <g id="g153"/>
  <g id="g165"/>
</svg>