  0
SECTION
  2
BLOCKS
  0
ENDSEC
  0
SECTION
  2
ENTITIES
  0
LINE
  8
0
 10
-62.284
 20
-230.758
 11
23.067
 21
-219.735
  0
LINE
  8
0
 10
23.067
 20
-219.735
 11
26.611
 21
-218.973
  0
LINE
  8
0
 10
26.611
 20
-218.973
 11
29.943
 21
-217.635
  0
LINE
  8
0
 10
29.943
 20
-217.635
 11
33.555
 21
-218.088
  0
LINE
  8
0
 10
33.555
 20
-218.088
 11
37.14
 21
-217.925
  0
LINE
  8
0
 10
37.14
 20
-217.925
 11
115.302
 21
-207.843
  0
LINE
  8
0
 10
115.302
 20
-207.843
 11
119.434
 21
-206.886
  0
LINE
  8
0
 10
119.434
 20
-206.886
 11
123.276
 21
-205.123
  0
LINE
  8
0
 10
123.276
 20
-205.123
 11
125.942
 21
-203.243
  0
LINE
  8
0
 10
125.942
 20
-203.243
 11
128.162
 21
-200.998
  0
LINE
  8
0
 10
128.162
 20
-200.998
 11
129.742
 21
-198.757
  0
LINE
  8
0
 10
129.742
 20
-198.757
 11
130.929
 21
-196.292
  0
LINE
  8
0
 10
130.929
 20
-196.292
 11
131.608
 21
-193.802
  0
LINE
  8
0
 10
131.608
 20
-193.802
 11
131.839
 21
-191.283
  0
LINE
  8
0
 10
131.839
 20
-191.283
 11
131.839
 21
-188.525
  0
LINE
  8
0
 10
131.839
 20
-188.525
 11
131.579
 21
-185.92
  0
LINE
  8
0
 10
131.579
 20
-185.92
 11
130.814
 21
-183.359
  0
LINE
  8
0
 10
130.814
 20
-183.359
 11
129.428
 21
-180.828
  0
LINE
  8
0
 10
129.428
 20
-180.828
 11
127.546
 21
-178.63
  0
LINE
  8
0
 10
127.546
 20
-178.63
 11
127.106
 21
-178.232
  0
LINE
  8
0
 10
127.106
 20
-178.232
 11
127.106
 21
-163.616
  0
LINE
  8
0
 10
127.106
 20
-163.616
 11
127.004
 21
-160.328
  0
LINE
  8
0
 10
127.004
 20
-160.328
 11
126.583
 21
-156.87
  0
LINE
  8
0
 10
126.583
 20
-156.87
 11
125.755
 21
-153.385
  0
LINE
  8
0
 10
125.755
 20
-153.385
 11
124.436
 21
-150.015
  0
LINE
  8
0
 10
124.436
 20
-150.015
 11
122.538
 21
-146.903
  0
LINE
  8
0
 10
122.538
 20
-146.903
 11
119.974
 21
-144.191
  0
LINE
  8
0
 10
119.974
 20
-144.191
 11
116.659
 21
-142.023
  0
LINE
  8
0
 10
116.659
 20
-142.023
 11
112.505
 21
-140.54
  0
LINE
  8
0
 10
112.505
 20
-140.54
 11
112.505
 21
-98.804
  0
LINE
  8
0
 10
112.505
 20
-98.804
 11
117.918
 21
-98.051
  0
LINE
  8
0
 10
117.918
 20
-98.051
 11
121.875
 21
-97.116
  0
LINE
  8
0
 10
121.875
 20
-97.116
 11
126.087
 21
-95.647
  0
LINE
  8
0
 10
126.087
 20
-95.647
 11
130.12
 21
-93.526
  0
LINE
  8
0
 10
130.12
 20
-93.526
 11
131.933
 21
-92.183
  0
LINE
  8
0
 10
131.933
 20
-92.183
 11
133.538
 21
-90.632
  0
LINE
  8
0
 10
133.538
 20
-90.632
 11
134.881
 21
-88.857
  0
LINE
  8
0
 10
134.881
 20
-88.857
 11
135.908
 21
-86.845
  0
LINE
  8
0
 10
135.908
 20
-86.845
 11
136.563
 21
-84.579
  0
LINE
  8
0
 10
136.563
 20
-84.579
 11
136.794
 21
-82.045
  0
LINE
  8
0
 10
136.794
 20
-82.045
 11
139.459
 21
-81.653
  0
LINE
  8
0
 10
139.459
 20
-81.653
 11
142.903
 21
-80.841
  0
LINE
  8
0
 10
142.903
 20
-80.841
 11
146.881
 21
-79.413
  0
LINE
  8
0
 10
146.881
 20
-79.413
 11
151.147
 21
-77.175
  0
LINE
  8
0
 10
151.147
 20
-77.175
 11
155.455
 21
-73.932
  0
LINE
  8
0
 10
155.455
 20
-73.932
 11
159.56
 21
-69.488
  0
LINE
  8
0
 10
159.56
 20
-69.488
 11
161.46
 21
-66.754
  0
LINE
  8
0
 10
161.46
 20
-66.754
 11
163.217
 21
-63.648
  0
LINE
  8
0
 10
163.217
 20
-63.648
 11
164.8
 21
-60.144
  0
LINE
  8
0
 10
164.8
 20
-60.144
 11
166.179
 21
-56.218
  0
LINE
  8
0
 10
166.179
 20
-56.218
 11
167.166
 21
-52.333
  0
LINE
  8
0
 10
167.166
 20
-52.333
 11
167.746
 21
-48.418
  0
LINE
  8
0
 10
167.746
 20
-48.418
 11
167.882
 21
-44.477
  0
LINE
  8
0
 10
167.882
 20
-44.477
 11
167.534
 21
-40.515
  0
LINE
  8
0
 10
167.534
 20
-40.515
 11
165.975
 21
-34.258
  0
LINE
  8
0
 10
165.975
 20
-34.258
 11
163.268
 21
-28.061
  0
LINE
  8
0
 10
163.268
 20
-28.061
 11
160.595
 21
-23.655
  0
LINE
  8
0
 10
160.595
 20
-23.655
 11
157.402
 21
-19.414
  0
LINE
  8
0
 10
157.402
 20
-19.414
 11
156.392
 21
-18.258
  0
LINE
  8
0
 10
156.392
 20
-18.258
 11
156.392
 21
32.581
  0
LINE
  8
0
 10
156.392
 20
32.581
 11
157.697
 21
33.413
  0
LINE
  8
0
 10
157.697
 20
33.413
 11
159.492
 21
35.143
  0
LINE
  8
0
 10
159.492
 20
35.143
 11
160.331
 21
36.468
  0
LINE
  8
0
 10
160.331
 20
36.468
 11
161.002
 21
38.166
  0
LINE
  8
0
 10
161.002
 20
38.166
 11
161.407
 21
40.287
  0
LINE
  8
0
 10
161.407
 20
40.287
 11
161.45
 21
42.881
  0
LINE
  8
0
 10
161.45
 20
42.881
 11
160.805
 21
45.719
  0
LINE
  8
0
 10
160.805
 20
45.719
 11
159.257
 21
50.22
  0
LINE
  8
0
 10
159.257
 20
50.22
 11
154.45
 21
61.931
  0
LINE
  8
0
 10
154.45
 20
61.931
 11
149.018
 21
73.457
  0
LINE
  8
0
 10
149.018
 20
73.457
 11
146.688
 21
77.726
  0
LINE
  8
0
 10
146.688
 20
77.726
 11
144.948
 21
80.24
  0
LINE
  8
0
 10
144.948
 20
80.24
 11
140.96
 21
83.978
  0
LINE
  8
0
 10
140.96
 20
83.978
 11
136.045
 21
87.783
  0
LINE
  8
0
 10
136.045
 20
87.783
 11
130.935
 21
91.043
  0
LINE
  8
0
 10
130.935
 20
91.043
 11
126.364
 21
93.15
  0
LINE
  8
0
 10
126.364
 20
93.15
 11
122.813
 21
94.677
  0
LINE
  8
0
 10
122.813
 20
94.677
 11
117.123
 21
96.172
  0
LINE
  8
0
 10
117.123
 20
96.172
 11
111.185
 21
96.72
  0
LINE
  8
0
 10
111.185
 20
96.72
 11
110.382
 21
98.039
  0
LINE
  8
0
 10
110.382
 20
98.039
 11
109.242
 21
99.102
  0
LINE
  8
0
 10
109.242
 20
99.102
 11
107.865
 21
99.817
  0
LINE
  8
0
 10
107.865
 20
99.817
 11
106.357
 21
100.095
  0
LINE
  8
0
 10
106.357
 20
100.095
 11
98.838
 21
100.232
  0
LINE
  8
0
 10
98.838
 20
100.232
 11
98.838
 21
116.253
  0
LINE
  8
0
 10
98.838
 20
116.253
 11
101.579
 21
117.589
  0
LINE
  8
0
 10
101.579
 20
117.589
 11
104.022
 21
119.296
  0
LINE
  8
0
 10
104.022
 20
119.296
 11
106.145
 21
121.362
  0
LINE
  8
0
 10
106.145
 20
121.362
 11
107.928
 21
123.778
  0
LINE
  8
0
 10
107.928
 20
123.778
 11
109.351
 21
126.531
  0
LINE
  8
0
 10
109.351
 20
126.531
 11
110.392
 21
129.613
  0
LINE
  8
0
 10
110.392
 20
129.613
 11
111.032
 21
133.011
  0
LINE
  8
0
 10
111.032
 20
133.011
 11
111.25
 21
136.715
  0
LINE
  8
0
 10
111.25
 20
136.715
 11
111.013
 21
141.114
  0
LINE
  8
0
 10
111.013
 20
141.114
 11
109.938
 21
146.855
  0
LINE
  8
0
 10
109.938
 20
146.855
 11
108.915
 21
149.881
  0
LINE
  8
0
 10
108.915
 20
149.881
 11
107.476
 21
152.825
  0
LINE
  8
0
 10
107.476
 20
152.825
 11
105.555
 21
155.548
  0
LINE
  8
0
 10
105.555
 20
155.548
 11
103.081
 21
157.912
  0
LINE
  8
0
 10
103.081
 20
157.912
 11
101.052
 21
159.211
  0
LINE
  8
0
 10
101.052
 20
159.211
 11
98.838
 21
160.193
  0
LINE
  8
0
 10
98.838
 20
160.193
 11
98.838
 21
175.605
  0
LINE
  8
0
 10
98.838
 20
175.605
 11
98.876
 21
176.768
  0
LINE
  8
0
 10
98.876
 20
176.768
 11
98.304
 21
181.9
  0
LINE
  8
0
 10
98.304
 20
181.9
 11
96.604
 21
186.881
  0
LINE
  8
0
 10
96.604
 20
186.881
 11
93.964
 21
191.336
  0
LINE
  8
0
 10
93.964
 20
191.336
 11
90.401
 21
195.344
  0
LINE
  8
0
 10
90.401
 20
195.344
 11
85.963
 21
198.806
  0
LINE
  8
0
 10
85.963
 20
198.806
 11
80.882
 21
201.505
  0
LINE
  8
0
 10
80.882
 20
201.505
 11
77.51
 21
202.733
  0
LINE
  8
0
 10
77.51
 20
202.733
 11
74.021
 21
203.632
  0
LINE
  8
0
 10
74.021
 20
203.632
 11
74.021
 21
219.193
  0
LINE
  8
0
 10
74.021
 20
219.193
 11
73.724
 21
220.377
  0
LINE
  8
0
 10
73.724
 20
220.377
 11
72.778
 21
221.613
  0
LINE
  8
0
 10
72.778
 20
221.613
 11
71.098
 21
222.737
  0
LINE
  8
0
 10
71.098
 20
222.737
 11
68.599
 21
223.584
  0
LINE
  8
0
 10
68.599
 20
223.584
 11
65.198
 21
223.989
  0
LINE
  8
0
 10
65.198
 20
223.989
 11
60.809
 21
223.786
  0
LINE
  8
0
 10
60.809
 20
223.786
 11
55.349
 21
222.81
  0
LINE
  8
0
 10
55.349
 20
222.81
 11
48.734
 21
220.896
  0
LINE
  8
0
 10
48.734
 20
220.896
 11
48.615
 21
220.835
  0
LINE
  8
0
 10
48.615
 20
220.835
 11
46.978
 21
219.972
  0
LINE
  8
0
 10
46.978
 20
219.972
 11
45.662
 21
218.784
  0
LINE
  8
0
 10
45.662
 20
218.784
 11
44.786
 21
217.394
  0
LINE
  8
0
 10
44.786
 20
217.394
 11
44.468
 21
215.922
  0
LINE
  8
0
 10
44.468
 20
215.922
 11
44.468
 21
205.652
  0
LINE
  8
0
 10
44.468
 20
205.652
 11
-9.528
 21
208.541
  0
LINE
  8
0
 10
-9.528
 20
208.541
 11
-13.696
 21
208.553
  0
LINE
  8
0
 10
-13.696
 20
208.553
 11
-17.77
 21
208.135
  0
LINE
  8
0
 10
-17.77
 20
208.135
 11
-17.77
 21
220.05
  0
LINE
  8
0
 10
-17.77
 20
220.05
 11
-18.066
 21
221.234
  0
LINE
  8
0
 10
-18.066
 20
221.234
 11
-19.013
 21
222.47
  0
LINE
  8
0
 10
-19.013
 20
222.47
 11
-20.693
 21
223.595
  0
LINE
  8
0
 10
-20.693
 20
223.595
 11
-23.191
 21
224.442
  0
LINE
  8
0
 10
-23.191
 20
224.442
 11
-26.592
 21
224.847
  0
LINE
  8
0
 10
-26.592
 20
224.847
 11
-30.979
 21
224.644
  0
LINE
  8
0
 10
-30.979
 20
224.644
 11
-36.437
 21
223.669
  0
LINE
  8
0
 10
-36.437
 20
223.669
 11
-43.05
 21
221.757
  0
LINE
  8
0
 10
-43.05
 20
221.757
 11
-44.958
 21
220.967
  0
LINE
  8
0
 10
-44.958
 20
220.967
 11
-46.519
 21
219.735
  0
LINE
  8
0
 10
-46.519
 20
219.735
 11
-47.572
 21
218.221
  0
LINE
  8
0
 10
-47.572
 20
218.221
 11
-47.959
 21
216.588
  0
LINE
  8
0
 10
-47.959
 20
216.588
 11
-47.959
 21
192.651
  0
LINE
  8
0
 10
-47.959
 20
192.651
 11
-48.012
 21
190.829
  0
LINE
  8
0
 10
-48.012
 20
190.829
 11
-72.89
 21
171.97
  0
LINE
  8
0
 10
-72.89
 20
171.97
 11
-82.551
 21
170.524
  0
LINE
  8
0
 10
-82.551
 20
170.524
 11
-84.857
 21
169.91
  0
LINE
  8
0
 10
-84.857
 20
169.91
 11
-86.972
 21
168.987
  0
LINE
  8
0
 10
-86.972
 20
168.987
 11
-88.903
 21
167.781
  0
LINE
  8
0
 10
-88.903
 20
167.781
 11
-90.655
 21
166.317
  0
LINE
  8
0
 10
-90.655
 20
166.317
 11
-93.646
 21
162.715
  0
LINE
  8
0
 10
-93.646
 20
162.715
 11
-95.99
 21
158.386
  0
LINE
  8
0
 10
-95.99
 20
158.386
 11
-97.732
 21
153.534
  0
LINE
  8
0
 10
-97.732
 20
153.534
 11
-98.916
 21
148.362
  0
LINE
  8
0
 10
-98.916
 20
148.362
 11
-99.588
 21
143.074
  0
LINE
  8
0
 10
-99.588
 20
143.074
 11
-99.792
 21
137.875
  0
LINE
  8
0
 10
-99.792
 20
137.875
 11
-99.616
 21
133.414
  0
LINE
  8
0
 10
-99.616
 20
133.414
 11
-99.155
 21
129.221
  0
LINE
  8
0
 10
-99.155
 20
129.221
 11
-98.422
 21
125.316
  0
LINE
  8
0
 10
-98.422
 20
125.316
 11
-97.426
 21
121.715
  0
LINE
  8
0
 10
-97.426
 20
121.715
 11
-96.181
 21
118.438
  0
LINE
  8
0
 10
-96.181
 20
118.438
 11
-94.696
 21
115.504
  0
LINE
  8
0
 10
-94.696
 20
115.504
 11
-92.985
 21
112.93
  0
LINE
  8
0
 10
-92.985
 20
112.93
 11
-91.057
 21
110.735
  0
LINE
  8
0
 10
-91.057
 20
110.735
 11
-91.057
 21
96.525
  0
LINE
  8
0
 10
-91.057
 20
96.525
 11
-116.161
 21
89.683
  0
LINE
  8
0
 10
-116.161
 20
89.683
 11
-117.585
 21
88.923
  0
LINE
  8
0
 10
-117.585
 20
88.923
 11
-119.591
 21
87.398
  0
LINE
  8
0
 10
-119.591
 20
87.398
 11
-124.987
 21
82.43
  0
LINE
  8
0
 10
-124.987
 20
82.43
 11
-131.625
 21
75.525
  0
LINE
  8
0
 10
-131.625
 20
75.525
 11
-138.781
 21
67.43
  0
LINE
  8
0
 10
-138.781
 20
67.43
 11
-145.73
 21
58.892
  0
LINE
  8
0
 10
-145.73
 20
58.892
 11
-151.748
 21
50.658
  0
LINE
  8
0
 10
-151.748
 20
50.658
 11
-156.11
 21
43.476
  0
LINE
  8
0
 10
-156.11
 20
43.476
 11
-157.444
 21
40.512
  0
LINE
  8
0
 10
-157.444
 20
40.512
 11
-158.092
 21
38.091
  0
LINE
  8
0
 10
-158.092
 20
38.091
 11
-158.272
 21
34.254
  0
LINE
  8
0
 10
-158.272
 20
34.254
 11
-157.823
 21
31.172
  0
LINE
  8
0
 10
-157.823
 20
31.172
 11
-156.932
 21
28.769
  0
LINE
  8
0
 10
-156.932
 20
28.769
 11
-155.786
 21
26.971
  0
LINE
  8
0
 10
-155.786
 20
26.971
 11
-154.57
 21
25.702
  0
LINE
  8
0
 10
-154.57
 20
25.702
 11
-153.471
 21
24.889
  0
LINE
  8
0
 10
-153.471
 20
24.889
 11
-152.368
 21
24.328
  0
LINE
  8
0
 10
-152.368
 20
24.328
 11
-152.368
 21
-11.635
  0
LINE
  8
0
 10
-152.368
 20
-11.635
 11
-152.437
 21
-12.721
  0
LINE
  8
0
 10
-152.437
 20
-12.721
 11
-152.349
 21
-19.922
  0
LINE
  8
0
 10
-152.349
 20
-19.922
 11
-152.372
 21
-20.63
  0
LINE
  8
0
 10
-152.372
 20
-20.63
 11
-152.372
 21
-25.115
  0
LINE
  8
0
 10
-152.372
 20
-25.115
 11
-153.03
 21
-25.838
  0
LINE
  8
0
 10
-153.03
 20
-25.838
 11
-156.457
 21
-30.069
  0
LINE
  8
0
 10
-156.457
 20
-30.069
 11
-159.324
 21
-34.431
  0
LINE
  8
0
 10
-159.324
 20
-34.431
 11
-162.33
 21
-40.612
  0
LINE
  8
0
 10
-162.33
 20
-40.612
 11
-163.348
 21
-43.704
  0
LINE
  8
0
 10
-163.348
 20
-43.704
 11
-164.038
 21
-46.779
  0
LINE
  8
0
 10
-164.038
 20
-46.779
 11
-164.464
 21
-50.722
  0
LINE
  8
0
 10
-164.464
 20
-50.722
 11
-164.343
 21
-54.587
  0
LINE
  8
0
 10
-164.343
 20
-54.587
 11
-163.677
 21
-58.356
  0
LINE
  8
0
 10
-163.677
 20
-58.356
 11
-162.47
 21
-62.011
  0
LINE
  8
0
 10
-162.47
 20
-62.011
 11
-161.015
 21
-65.056
  0
LINE
  8
0
 10
-161.015
 20
-65.056
 11
-159.294
 21
-67.896
  0
LINE
  8
0
 10
-159.294
 20
-67.896
 11
-154.489
 21
-74.332
  0
LINE
  8
0
 10
-154.489
 20
-74.332
 11
-149.552
 21
-79.64
  0
LINE
  8
0
 10
-149.552
 20
-79.64
 11
-144.604
 21
-83.995
  0
LINE
  8
0
 10
-144.604
 20
-83.995
 11
-139.765
 21
-87.574
  0
LINE
  8
0
 10
-139.765
 20
-87.574
 11
-135.004
 21
-90.132
  0
LINE
  8
0
 10
-135.004
 20
-90.132
 11
-129.687
 21
-91.912
  0
LINE
  8
0
 10
-129.687
 20
-91.912
 11
-124.18
 21
-93.047
  0
LINE
  8
0
 10
-124.18
 20
-93.047
 11
-118.852
 21
-93.674
  0
LINE
  8
0
 10
-118.852
 20
-93.674
 11
-110.198
 21
-93.939
  0
LINE
  8
0
 10
-110.198
 20
-93.939
 11
-106.66
 21
-93.788
  0
LINE
  8
0
 10
-106.66
 20
-93.788
 11
-106.66
 21
-135.103
  0
LINE
  8
0
 10
-106.66
 20
-135.103
 11
-107.977
 21
-136.148
  0
LINE
  8
0
 10
-107.977
 20
-136.148
 11
-108.776
 21
-136.79
  0
LINE
  8
0
 10
-108.776
 20
-136.79
 11
-111.929
 21
-139.943
  0
LINE
  8
0
 10
-111.929
 20
-139.943
 11
-112.603
 21
-140.712
  0
LINE
  8
0
 10
-112.603
 20
-140.712
 11
-115.411
 21
-145.086
  0
LINE
  8
0
 10
-115.411
 20
-145.086
 11
-116.023
 21
-146.379
  0
LINE
  8
0
 10
-116.023
 20
-146.379
 11
-117.42
 21
-150.22
  0
LINE
  8
0
 10
-117.42
 20
-150.22
 11
-117.821
 21
-151.781
  0
LINE
  8
0
 10
-117.821
 20
-151.781
 11
-118.001
 21
-152.792
  0
LINE
  8
0
 10
-118.001
 20
-152.792
 11
-118.33
 21
-156.537
  0
LINE
  8
0
 10
-118.33
 20
-156.537
 11
-118.33
 21
-169.474
  0
LINE
  8
0
 10
-118.33
 20
-169.474
 11
-118.426
 21
-169.57
  0
LINE
  8
0
 10
-118.426
 20
-169.57
 11
-119.187
 21
-170.385
  0
LINE
  8
0
 10
-119.187
 20
-170.385
 11
-120.693
 21
-172.356
  0
LINE
  8
0
 10
-120.693
 20
-172.356
 11
-121.885
 21
-174.586
  0
LINE
  8
0
 10
-121.885
 20
-174.586
 11
-122.118
 21
-175.213
  0
LINE
  8
0
 10
-122.118
 20
-175.213
 11
-122.794
 21
-177.592
  0
LINE
  8
0
 10
-122.794
 20
-177.592
 11
-123.021
 21
-179.942
  0
LINE
  8
0
 10
-123.021
 20
-179.942
 11
-123.021
 21
-182.445
  0
LINE
  8
0
 10
-123.021
 20
-182.445
 11
-122.715
 21
-185.158
  0
LINE
  8
0
 10
-122.715
 20
-185.158
 11
-121.847
 21
-187.759
  0
LINE
  8
0
 10
-121.847
 20
-187.759
 11
-120.309
 21
-190.269
  0
LINE
  8
0
 10
-120.309
 20
-190.269
 11
-118.143
 21
-192.542
  0
LINE
  8
0
 10
-118.143
 20
-192.542
 11
-77.543
 21
-226.68
  0
LINE
  8
0
 10
-77.543
 20
-226.68
 11
-77.049
 21
-227.089
  0
LINE
  8
0
 10
-77.049
 20
-227.089
 11
-74.247
 21
-228.861
  0
LINE
  8
0
 10
-74.247
 20
-228.861
 11
-71.065
 21
-230.116
  0
LINE
  8
0
 10
-71.065
 20
-230.116
 11
-67.749
 21
-230.789
  0
LINE
  8
0
 10
-67.749
 20
-230.789
 11
-64.293
 21
-230.931
  0
LINE
  8
0
 10
-64.293
 20
-230.931
 11
-62.284
 21
-230.758
  0
LINE
  8
0
 10
-29.474
 20
219.622
 11
-27.374
 21
219.903
  0
LINE
  8
0
 10
-27.374
 20
219.903
 11
-25.354
 21
219.866
  0
LINE
  8
0
 10
-25.354
 20
219.866
 11
-23.834
 21
219.292
  0
LINE
  8
0
 10
-23.834
 20
219.292
 11
-23.392
 21
218.735
  0
LINE
  8
0
 10
-23.392
 20
218.735
 11
-23.234
 21
217.961
  0
LINE
  8
0
 10
-23.234
 20
217.961
 11
-23.195
 21
206.9
  0
LINE
  8
0
 10
-23.195
 20
206.9
 11
-23.203
 21
206.9
  0
LINE
  8
0
 10
-23.203
 20
206.9
 11
-26.422
 21
205.727
  0
LINE
  8
0
 10
-26.422
 20
205.727
 11
-29.474
 21
204.282
  0
LINE
  8
0
 10
-29.474
 20
204.282
 11
-29.474
 21
219.622
  0
LINE
  8
0
 10
68.362
 20
204.378
 11
62.944
 21
204.665
  0
LINE
  8
0
 10
62.944
 20
204.665
 11
62.944
 21
218.872
  0
LINE
  8
0
 10
62.944
 20
218.872
 11
64.904
 21
219.069
  0
LINE
  8
0
 10
64.904
 20
219.069
 11
66.707
 21
218.952
  0
LINE
  8
0
 10
66.707
 20
218.952
 11
68.029
 21
218.35
  0
LINE
  8
0
 10
68.029
 20
218.35
 11
68.407
 21
217.814
  0
LINE
  8
0
 10
68.407
 20
217.814
 11
68.542
 21
217.093
  0
LINE
  8
0
 10
68.542
 20
217.093
 11
68.596
 21
204.351
  0
LINE
  8
0
 10
68.596
 20
204.351
 11
68.362
 21
204.378
  0
LINE
  8
0
 10
52.763
 20
101.078
 11
-24.538
 21
102.494
  0
LINE
  8
0
 10
-24.538
 20
102.494
 11
-26.134
 21
104.361
  0
LINE
  8
0
 10
-26.134
 20
104.361
 11
-27.385
 21
106.423
  0
LINE
  8
0
 10
-27.385
 20
106.423
 11
-28.432
 21
109.262
  0
LINE
  8
0
 10
-28.432
 20
109.262
 11
-28.797
 21
112.293
  0
LINE
  8
0
 10
-28.797
 20
112.293
 11
-28.797
 21
181.459
  0
LINE
  8
0
 10
-28.797
 20
181.459
 11
-28.432
 21
184.473
  0
LINE
  8
0
 10
-28.432
 20
184.473
 11
-27.385
 21
187.252
  0
LINE
  8
0
 10
-27.385
 20
187.252
 11
-25.752
 21
189.722
  0
LINE
  8
0
 10
-25.752
 20
189.722
 11
-23.574
 21
191.836
  0
LINE
  8
0
 10
-23.574
 20
191.836
 11
-20.956
 21
193.544
  0
LINE
  8
0
 10
-20.956
 20
193.544
 11
-17.942
 21
194.782
  0
LINE
  8
0
 10
-17.942
 20
194.782
 11
-14.636
 21
195.475
  0
LINE
  8
0
 10
-14.636
 20
195.475
 11
-11.089
 21
195.597
  0
LINE
  8
0
 10
-11.089
 20
195.597
 11
44.468
 21
192.662
  0
LINE
  8
0
 10
44.468
 20
192.662
 11
62.761
 21
191.698
  0
LINE
  8
0
 10
62.761
 20
191.698
 11
66.79
 21
191.491
  0
LINE
  8
0
 10
66.79
 20
191.491
 11
70.083
 21
191.035
  0
LINE
  8
0
 10
70.083
 20
191.035
 11
73.141
 21
190.022
  0
LINE
  8
0
 10
73.141
 20
190.022
 11
75.897
 21
188.56
  0
LINE
  8
0
 10
75.897
 20
188.56
 11
78.299
 21
186.678
  0
LINE
  8
0
 10
78.299
 20
186.678
 11
80.275
 21
184.466
  0
LINE
  8
0
 10
80.275
 20
184.466
 11
81.758
 21
181.956
  0
LINE
  8
0
 10
81.758
 20
181.956
 11
82.705
 21
179.222
  0
LINE
  8
0
 10
82.705
 20
179.222
 11
83.036
 21
176.332
  0
LINE
  8
0
 10
83.036
 20
176.332
 11
83.036
 21
110.578
  0
LINE
  8
0
 10
83.036
 20
110.578
 11
82.705
 21
107.697
  0
LINE
  8
0
 10
82.705
 20
107.697
 11
81.758
 21
105.023
  0
LINE
  8
0
 10
81.758
 20
105.023
 11
80.318
 21
102.668
  0
LINE
  8
0
 10
80.318
 20
102.668
 11
78.402
 21
100.611
  0
LINE
  8
0
 10
78.402
 20
100.611
 11
52.763
 21
101.078
  0
LINE
  8
0
 10
0.710999
 20
151.335
 11
1.26999
 21
151.4
  0
LINE
  8
0
 10
1.26999
 20
151.4
 11
3.558
 21
151.76
  0
LINE
  8
0
 10
3.558
 20
151.76
 11
3.646
 21
151.783
  0
LINE
  8
0
 10
3.646
 20
151.783
 11
5.17599
 21
152.227
  0
LINE
  8
0
 10
5.17599
 20
152.227
 11
5.48999
 21
152.372
  0
LINE
  8
0
 10
5.48999
 20
152.372
 11
8.06099
 21
153.474
  0
LINE
  8
0
 10
8.06099
 20
153.474
 11
8.17999
 21
153.535
  0
LINE
  8
0
 10
8.17999
 20
153.535
 11
10.774
 21
155.28
  0
LINE
  8
0
 10
10.774
 20
155.28
 11
12.917
 21
157.436
  0
LINE
  8
0
 10
12.917
 20
157.436
 11
14.531
 21
159.948
  0
LINE
  8
0
 10
14.531
 20
159.948
 11
15.552
 21
162.725
  0
LINE
  8
0
 10
15.552
 20
162.725
 11
15.912
 21
165.737
  0
LINE
  8
0
 10
15.912
 20
165.737
 11
15.552
 21
168.79
  0
LINE
  8
0
 10
15.552
 20
168.79
 11
14.531
 21
171.668
  0
LINE
  8
0
 10
14.531
 20
171.668
 11
12.917
 21
174.295
  0
LINE
  8
0
 10
12.917
 20
174.295
 11
10.774
 21
176.627
  0
LINE
  8
0
 10
10.774
 20
176.627
 11
8.174
 21
178.587
  0
LINE
  8
0
 10
8.174
 20
178.587
 11
5.17599
 21
180.116
  0
LINE
  8
0
 10
5.17599
 20
180.116
 11
1.84999
 21
181.155
  0
LINE
  8
0
 10
1.84999
 20
181.155
 11
-1.72299
 21
181.631
  0
LINE
  8
0
 10
-1.72299
 20
181.631
 11
-5.299
 21
181.481
  0
LINE
  8
0
 10
-5.299
 20
181.481
 11
-8.65199
 21
180.747
  0
LINE
  8
0
 10
-8.65199
 20
180.747
 11
-11.407
 21
179.613
  0
LINE
  8
0
 10
-11.407
 20
179.613
 11
-13.852
 21
178.077
  0
LINE
  8
0
 10
-13.852
 20
178.077
 11
-14.353
 21
177.755
  0
LINE
  8
0
 10
-14.353
 20
177.755
 11
-16.255
 21
175.877
  0
LINE
  8
0
 10
-16.255
 20
175.877
 11
-17.322
 21
174.392
  0
LINE
  8
0
 10
-17.322
 20
174.392
 11
-18.129
 21
173.183
  0
LINE
  8
0
 10
-18.129
 20
173.183
 11
-18.21
 21
173.057
  0
LINE
  8
0
 10
-18.21
 20
173.057
 11
-18.298
 21
172.839
  0
LINE
  8
0
 10
-18.298
 20
172.839
 11
-19.231
 21
170.313
  0
LINE
  8
0
 10
-19.231
 20
170.313
 11
-19.293
 21
170.042
  0
LINE
  8
0
 10
-19.293
 20
170.042
 11
-19.645
 21
167.153
  0
LINE
  8
0
 10
-19.645
 20
167.153
 11
-19.272
 21
164.074
  0
LINE
  8
0
 10
-19.272
 20
164.074
 11
-18.21
 21
161.172
  0
LINE
  8
0
 10
-18.21
 20
161.172
 11
-16.546
 21
158.494
  0
LINE
  8
0
 10
-16.546
 20
158.494
 11
-14.349
 21
156.16
  0
LINE
  8
0
 10
-14.349
 20
156.16
 11
-11.688
 21
154.199
  0
LINE
  8
0
 10
-11.688
 20
154.199
 11
-8.64799
 21
152.686
  0
LINE
  8
0
 10
-8.64799
 20
152.686
 11
-5.295
 21
151.681
  0
LINE
  8
0
 10
-5.295
 20
151.681
 11
-1.71899
 21
151.255
  0
LINE
  8
0
 10
-1.71899
 20
151.255
 11
0.710999
 21
151.335
  0
LINE
  8
0
 10
60.748
 20
151.439
 11
61.314
 21
151.484
  0
LINE
  8
0
 10
61.314
 20
151.484
 11
62.531
 21
151.66
  0
LINE
  8
0
 10
62.531
 20
151.66
 11
63.105
 21
151.768
  0
LINE
  8
0
 10
63.105
 20
151.768
 11
64.337
 21
152.089
  0
LINE
  8
0
 10
64.337
 20
152.089
 11
64.777
 21
152.219
  0
LINE
  8
0
 10
64.777
 20
152.219
 11
64.896
 21
152.257
  0
LINE
  8
0
 10
64.896
 20
152.257
 11
65.129
 21
152.364
  0
LINE
  8
0
 10
65.129
 20
152.364
 11
67.6
 21
153.482
  0
LINE
  8
0
 10
67.6
 20
153.482
 11
69.77
 21
154.982
  0
LINE
  8
0
 10
69.77
 20
154.982
 11
71.488
 21
156.749
  0
LINE
  8
0
 10
71.488
 20
156.749
 11
73.034
 21
159.152
  0
LINE
  8
0
 10
73.034
 20
159.152
 11
73.92
 21
161.633
  0
LINE
  8
0
 10
73.92
 20
161.633
 11
74.235
 21
164.329
  0
LINE
  8
0
 10
74.235
 20
164.329
 11
73.92
 21
167.043
  0
LINE
  8
0
 10
73.92
 20
167.043
 11
73.034
 21
169.602
  0
LINE
  8
0
 10
73.034
 20
169.602
 11
71.033
 21
172.686
  0
LINE
  8
0
 10
71.033
 20
172.686
 11
71.002
 21
172.716
  0
LINE
  8
0
 10
71.002
 20
172.716
 11
69.77
 21
174.025
  0
LINE
  8
0
 10
69.77
 20
174.025
 11
67.49
 21
175.777
  0
LINE
  8
0
 10
67.49
 20
175.777
 11
64.896
 21
177.139
  0
LINE
  8
0
 10
64.896
 20
177.139
 11
62.038
 21
178.047
  0
LINE
  8
0
 10
62.038
 20
178.047
 11
58.946
 21
178.463
  0
LINE
  8
0
 10
58.946
 20
178.463
 11
55.828
 21
178.336
  0
LINE
  8
0
 10
55.828
 20
178.336
 11
52.931
 21
177.675
  0
LINE
  8
0
 10
52.931
 20
177.675
 11
50.412
 21
176.6
  0
LINE
  8
0
 10
50.412
 20
176.6
 11
48.21
 21
175.15
  0
LINE
  8
0
 10
48.21
 20
175.15
 11
47.976
 21
174.993
  0
LINE
  8
0
 10
47.976
 20
174.993
 11
47.812
 21
174.821
  0
LINE
  8
0
 10
47.812
 20
174.821
 11
46.136
 21
173.133
  0
LINE
  8
0
 10
46.136
 20
173.133
 11
45.941
 21
172.85
  0
LINE
  8
0
 10
45.941
 20
172.85
 11
44.751
 21
171.006
  0
LINE
  8
0
 10
44.751
 20
171.006
 11
44.617
 21
170.807
  0
LINE
  8
0
 10
44.617
 20
170.807
 11
44.578
 21
170.677
  0
LINE
  8
0
 10
44.578
 20
170.677
 11
43.733
 21
168.366
  0
LINE
  8
0
 10
43.733
 20
168.366
 11
43.695
 21
168.106
  0
LINE
  8
0
 10
43.695
 20
168.106
 11
43.404
 21
165.55
  0
LINE
  8
0
 10
43.404
 20
165.55
 11
43.714
 21
162.793
  0
LINE
  8
0
 10
43.714
 20
162.793
 11
44.613
 21
160.208
  0
LINE
  8
0
 10
44.613
 20
160.208
 11
46.064
 21
157.836
  0
LINE
  8
0
 10
46.064
 20
157.836
 11
47.968
 21
155.755
  0
LINE
  8
0
 10
47.968
 20
155.755
 11
50.278
 21
154.006
  0
LINE
  8
0
 10
50.278
 20
154.006
 11
52.923
 21
152.651
  0
LINE
  8
0
 10
52.923
 20
152.651
 11
55.822
 21
151.769
  0
LINE
  8
0
 10
55.822
 20
151.769
 11
58.938
 21
151.389
  0
LINE
  8
0
 10
58.938
 20
151.389
 11
60.748
 21
151.439
  0
LINE
  8
0
 10
67.352
 20
120.599
 11
68.733
 21
121.391
  0
LINE
  8
0
 10
68.733
 20
121.391
 11
69.667
 21
122.581
  0
LINE
  8
0
 10
69.667
 20
122.581
 11
70.019
 21
124.058
  0
LINE
  8
0
 10
70.019
 20
124.058
 11
70.019
 21
128.03
  0
LINE
  8
0
 10
70.019
 20
128.03
 11
69.667
 21
129.526
  0
LINE
  8
0
 10
69.667
 20
129.526
 11
68.73
 21
130.769
  0
LINE
  8
0
 10
68.73
 20
130.769
 11
67.348
 21
131.63
  0
LINE
  8
0
 10
67.348
 20
131.63
 11
65.661
 21
131.975
  0
LINE
  8
0
 10
65.661
 20
131.975
 11
-9.88399
 21
133.865
  0
LINE
  8
0
 10
-9.88399
 20
133.865
 11
-11.709
 21
133.605
  0
LINE
  8
0
 10
-11.709
 20
133.605
 11
-13.098
 21
132.832
  0
LINE
  8
0
 10
-13.098
 20
132.832
 11
-13.186
 21
132.786
  0
LINE
  8
0
 10
-13.186
 20
132.786
 11
-13.224
 21
132.747
  0
LINE
  8
0
 10
-13.224
 20
132.747
 11
-14.173
 21
131.573
  0
LINE
  8
0
 10
-14.173
 20
131.573
 11
-14.188
 21
131.535
  0
LINE
  8
0
 10
-14.188
 20
131.535
 11
-14.219
 21
131.439
  0
LINE
  8
0
 10
-14.219
 20
131.439
 11
-14.556
 21
130.004
  0
LINE
  8
0
 10
-14.556
 20
130.004
 11
-14.556
 21
125.891
  0
LINE
  8
0
 10
-14.556
 20
125.891
 11
-14.188
 21
124.337
  0
LINE
  8
0
 10
-14.188
 20
124.337
 11
-13.186
 21
123.059
  0
LINE
  8
0
 10
-13.186
 20
123.059
 11
-11.705
 21
122.183
  0
LINE
  8
0
 10
-11.705
 20
122.183
 11
-9.87999
 21
121.839
  0
LINE
  8
0
 10
-9.87999
 20
121.839
 11
65.665
 21
120.331
  0
LINE
  8
0
 10
65.665
 20
120.331
 11
67.352
 21
120.599
  0
LINE
  8
0
 10
-75.611
 20
117.071
 11
-73.775
 21
118.268
  0
LINE
  8
0
 10
-73.775
 20
118.268
 11
-72.13
 21
120.638
  0
LINE
  8
0
 10
-72.13
 20
120.638
 11
-70.741
 21
124.023
  0
LINE
  8
0
 10
-70.741
 20
124.023
 11
-69.669
 21
128.267
  0
LINE
  8
0
 10
-69.669
 20
128.267
 11
-68.971
 21
133.253
  0
LINE
  8
0
 10
-68.971
 20
133.253
 11
-68.727
 21
138.781
  0
LINE
  8
0
 10
-68.727
 20
138.781
 11
-69.043
 21
144.807
  0
LINE
  8
0
 10
-69.043
 20
144.807
 11
-69.91
 21
150.107
  0
LINE
  8
0
 10
-69.91
 20
150.107
 11
-71.079
 21
154.126
  0
LINE
  8
0
 10
-71.079
 20
154.126
 11
-72.557
 21
157.203
  0
LINE
  8
0
 10
-72.557
 20
157.203
 11
-74.28
 21
159.183
  0
LINE
  8
0
 10
-74.28
 20
159.183
 11
-75.212
 21
159.711
  0
LINE
  8
0
 10
-75.212
 20
159.711
 11
-76.181
 21
159.906
  0
LINE
  8
0
 10
-76.181
 20
159.906
 11
-66.049
 21
160.721
  0
LINE
  8
0
 10
-66.049
 20
160.721
 11
-57.956
 21
161.379
  0
LINE
  8
0
 10
-57.956
 20
161.379
 11
-54.547
 21
161.647
  0
LINE
  8
0
 10
-54.547
 20
161.647
 11
-54.172
 21
161.685
  0
LINE
  8
0
 10
-54.172
 20
161.685
 11
-53.813
 21
161.708
  0
LINE
  8
0
 10
-53.813
 20
161.708
 11
-51.796
 21
161.096
  0
LINE
  8
0
 10
-51.796
 20
161.096
 11
-50.427
 21
159.968
  0
LINE
  8
0
 10
-50.427
 20
159.968
 11
-49.168
 21
158.318
  0
LINE
  8
0
 10
-49.168
 20
158.318
 11
-48.042
 21
156.194
  0
LINE
  8
0
 10
-48.042
 20
156.194
 11
-47.072
 21
153.641
  0
LINE
  8
0
 10
-47.072
 20
153.641
 11
-45.686
 21
147.437
  0
LINE
  8
0
 10
-45.686
 20
147.437
 11
-45.188
 21
140.075
  0
LINE
  8
0
 10
-45.188
 20
140.075
 11
-45.378
 21
135.589
  0
LINE
  8
0
 10
-45.378
 20
135.589
 11
-45.905
 21
131.424
  0
LINE
  8
0
 10
-45.905
 20
131.424
 11
-46.731
 21
127.661
  0
LINE
  8
0
 10
-46.731
 20
127.661
 11
-47.819
 21
124.378
  0
LINE
  8
0
 10
-47.819
 20
124.378
 11
-49.131
 21
121.656
  0
LINE
  8
0
 10
-49.131
 20
121.656
 11
-50.628
 21
119.574
  0
LINE
  8
0
 10
-50.628
 20
119.574
 11
-52.274
 21
118.212
  0
LINE
  8
0
 10
-52.274
 20
118.212
 11
-54.031
 21
117.649
  0
LINE
  8
0
 10
-54.031
 20
117.649
 11
-54.031
 21
117.638
  0
LINE
  8
0
 10
-54.031
 20
117.638
 11
-54.249
 21
117.638
  0
LINE
  8
0
 10
-54.249
 20
117.638
 11
-54.563
 21
117.615
  0
LINE
  8
0
 10
-54.563
 20
117.615
 11
-54.578
 21
117.615
  0
LINE
  8
0
 10
-54.578
 20
117.615
 11
-54.609
 21
117.622
  0
LINE
  8
0
 10
-54.609
 20
117.622
 11
-54.67
 21
117.622
  0
LINE
  8
0
 10
-54.67
 20
117.622
 11
-63.114
 21
117.366
  0
LINE
  8
0
 10
-63.114
 20
117.366
 11
-73.87
 21
117.029
  0
LINE
  8
0
 10
-73.87
 20
117.029
 11
-76.043
 21
116.98
  0
LINE
  8
0
 10
-76.043
 20
116.98
 11
-75.611
 21
117.071
  0
LINE
  8
0
 10
-54.658
 20
121.127
 11
-54.276
 21
121.15
  0
LINE
  8
0
 10
-54.276
 20
121.15
 11
-53.192
 21
121.899
  0
LINE
  8
0
 10
-53.192
 20
121.899
 11
-51.876
 21
123.924
  0
LINE
  8
0
 10
-51.876
 20
123.924
 11
-50.552
 21
127.172
  0
LINE
  8
0
 10
-50.552
 20
127.172
 11
-49.447
 21
131.588
  0
LINE
  8
0
 10
-49.447
 20
131.588
 11
-50.396
 21
131.887
  0
LINE
  8
0
 10
-50.396
 20
131.887
 11
-53.162
 21
133.31
  0
LINE
  8
0
 10
-53.162
 20
133.31
 11
-54.276
 21
134.221
  0
LINE
  8
0
 10
-54.276
 20
134.221
 11
-55.578
 21
135.93
  0
LINE
  8
0
 10
-55.578
 20
135.93
 11
-56.943
 21
137.611
  0
LINE
  8
0
 10
-56.943
 20
137.611
 11
-58.284
 21
138.412
  0
LINE
  8
0
 10
-58.284
 20
138.412
 11
-59.711
 21
138.736
  0
LINE
  8
0
 10
-59.711
 20
138.736
 11
-61.161
 21
138.629
  0
LINE
  8
0
 10
-61.161
 20
138.629
 11
-62.571
 21
138.139
  0
LINE
  8
0
 10
-62.571
 20
138.139
 11
-63.717
 21
138.055
  0
LINE
  8
0
 10
-63.717
 20
138.055
 11
-64.579
 21
138.371
  0
LINE
  8
0
 10
-64.579
 20
138.371
 11
-65.322
 21
139.202
  0
LINE
  8
0
 10
-65.322
 20
139.202
 11
-65.127
 21
136.172
  0
LINE
  8
0
 10
-65.127
 20
136.172
 11
-65.529
 21
131.442
  0
LINE
  8
0
 10
-65.529
 20
131.442
 11
-66.21
 21
127.601
  0
LINE
  8
0
 10
-66.21
 20
127.601
 11
-67.503
 21
122.604
  0
LINE
  8
0
 10
-67.503
 20
122.604
 11
-68.199
 21
120.722
  0
LINE
  8
0
 10
-68.199
 20
120.722
 11
-54.658
 21
121.127
  0
LINE
  8
0
 10
-63.121
 20
-98.632
 11
-66.466
 21
-98.035
  0
LINE
  8
0
 10
-66.466
 20
-98.035
 11
-69.501
 21
-96.897
  0
LINE
  8
0
 10
-69.501
 20
-96.897
 11
-72.152
 21
-95.272
  0
LINE
  8
0
 10
-72.152
 20
-95.272
 11
-74.346
 21
-93.242
  0
LINE
  8
0
 10
-74.346
 20
-93.242
 11
-76.001
 21
-90.834
  0
LINE
  8
0
 10
-76.001
 20
-90.834
 11
-77.052
 21
-88.117
  0
LINE
  8
0
 10
-77.052
 20
-88.117
 11
-77.42
 21
-85.144
  0
LINE
  8
0
 10
-77.42
 20
-85.144
 11
-77.42
 21
68.578
  0
LINE
  8
0
 10
-77.42
 20
68.578
 11
-77.052
 21
71.578
  0
LINE
  8
0
 10
-77.052
 20
71.578
 11
-76.001
 21
74.371
  0
LINE
  8
0
 10
-76.001
 20
74.371
 11
-74.346
 21
76.902
  0
LINE
  8
0
 10
-74.346
 20
76.902
 11
-72.152
 21
79.1
  0
LINE
  8
0
 10
-72.152
 20
79.1
 11
-69.498
 21
80.912
  0
LINE
  8
0
 10
-69.498
 20
80.912
 11
-66.466
 21
82.276
  0
LINE
  8
0
 10
-66.466
 20
82.276
 11
-63.5
 21
83.051
  0
LINE
  8
0
 10
-63.5
 20
83.051
 11
-60.336
 21
83.393
  0
LINE
  8
0
 10
-60.336
 20
83.393
 11
-59.529
 21
83.424
  0
LINE
  8
0
 10
-59.529
 20
83.424
 11
-51.329
 21
83.401
  0
LINE
  8
0
 10
-51.329
 20
83.401
 11
-51.368
 21
84.373
  0
LINE
  8
0
 10
-51.368
 20
84.373
 11
-51.18
 21
86.737
  0
LINE
  8
0
 10
-51.18
 20
86.737
 11
-50.706
 21
88.44
  0
LINE
  8
0
 10
-50.706
 20
88.44
 11
-49.655
 21
89.824
  0
LINE
  8
0
 10
-49.655
 20
89.824
 11
-48.185
 21
90.748
  0
LINE
  8
0
 10
-48.185
 20
90.748
 11
-46.451
 21
91.068
  0
LINE
  8
0
 10
-46.451
 20
91.068
 11
28.631
 21
90.032
  0
LINE
  8
0
 10
28.631
 20
90.032
 11
36.08
 21
89.928
  0
LINE
  8
0
 10
36.08
 20
89.928
 11
53.754
 21
89.687
  0
LINE
  8
0
 10
53.754
 20
89.687
 11
64.965
 21
89.527
  0
LINE
  8
0
 10
64.965
 20
89.527
 11
99.416
 21
89.06
  0
LINE
  8
0
 10
99.416
 20
89.06
 11
100.942
 21
88.783
  0
LINE
  8
0
 10
100.942
 20
88.783
 11
102.333
 21
88.059
  0
LINE
  8
0
 10
102.333
 20
88.059
 11
103.484
 21
86.983
  0
LINE
  8
0
 10
103.484
 20
86.983
 11
104.287
 21
85.647
  0
LINE
  8
0
 10
104.287
 20
85.647
 11
104.585
 21
84.667
  0
LINE
  8
0
 10
104.585
 20
84.667
 11
104.773
 21
83.68
  0
LINE
  8
0
 10
104.773
 20
83.68
 11
104.818
 21
82.988
  0
LINE
  8
0
 10
104.818
 20
82.988
 11
110.095
 21
82.98
  0
LINE
  8
0
 10
110.095
 20
82.98
 11
113.146
 21
82.687
  0
LINE
  8
0
 10
113.146
 20
82.687
 11
115.991
 21
81.878
  0
LINE
  8
0
 10
115.991
 20
81.878
 11
118.56
 21
80.618
  0
LINE
  8
0
 10
118.56
 20
80.618
 11
120.804
 21
78.947
  0
LINE
  8
0
 10
120.804
 20
78.947
 11
122.633
 21
76.929
  0
LINE
  8
0
 10
122.633
 20
76.929
 11
124.011
 21
74.623
  0
LINE
  8
0
 10
124.011
 20
74.623
 11
124.903
 21
72.074
  0
LINE
  8
0
 10
124.903
 20
72.074
 11
125.212
 21
69.343
  0
LINE
  8
0
 10
125.212
 20
69.343
 11
125.212
 21
-70.93
  0
LINE
  8
0
 10
125.212
 20
-70.93
 11
124.903
 21
-73.696
  0
LINE
  8
0
 10
124.903
 20
-73.696
 11
124.011
 21
-76.309
  0
LINE
  8
0
 10
124.011
 20
-76.309
 11
122.633
 21
-78.725
  0
LINE
  8
0
 10
122.633
 20
-78.725
 11
120.804
 21
-80.87
  0
LINE
  8
0
 10
120.804
 20
-80.87
 11
118.561
 21
-82.698
  0
LINE
  8
0
 10
118.561
 20
-82.698
 11
115.991
 21
-84.149
  0
LINE
  8
0
 10
115.991
 20
-84.149
 11
113.146
 21
-85.168
  0
LINE
  8
0
 10
113.146
 20
-85.168
 11
110.095
 21
-85.672
  0
LINE
  8
0
 10
110.095
 20
-85.672
 11
100.193
 21
-86.422
  0
LINE
  8
0
 10
100.193
 20
-86.422
 11
100.177
 21
-86.3
  0
LINE
  8
0
 10
100.177
 20
-86.3
 11
99.661
 21
-84.168
  0
LINE
  8
0
 10
99.661
 20
-84.168
 11
98.905
 21
-82.536
  0
LINE
  8
0
 10
98.905
 20
-82.536
 11
97.628
 21
-81.236
  0
LINE
  8
0
 10
97.628
 20
-81.236
 11
96.01
 21
-80.401
  0
LINE
  8
0
 10
96.01
 20
-80.401
 11
94.227
 21
-80.166
  0
LINE
  8
0
 10
94.227
 20
-80.166
 11
83.759
 21
-80.778
  0
LINE
  8
0
 10
83.759
 20
-80.778
 11
-42.124
 21
-88.255
  0
LINE
  8
0
 10
-42.124
 20
-88.255
 11
-43.971
 21
-88.673
  0
LINE
  8
0
 10
-43.971
 20
-88.673
 11
-45.757
 21
-89.618
  0
LINE
  8
0
 10
-45.757
 20
-89.618
 11
-47.277
 21
-90.948
  0
LINE
  8
0
 10
-47.277
 20
-90.948
 11
-48.326
 21
-92.525
  0
LINE
  8
0
 10
-48.326
 20
-92.525
 11
-50.771
 21
-97.927
  0
LINE
  8
0
 10
-50.771
 20
-97.927
 11
-50.794
 21
-97.989
  0
LINE
  8
0
 10
-50.794
 20
-97.989
 11
-59.529
 21
-98.662
  0
LINE
  8
0
 10
-59.529
 20
-98.662
 11
-63.121
 21
-98.632
  0
LINE
  8
0
 10
-8.797
 20
-68.479
 11
-3.808
 21
-66.105
  0
LINE
  8
0
 10
-3.808
 20
-66.105
 11
1.32199
 21
-64.035
  0
LINE
  8
0
 10
1.32199
 20
-64.035
 11
6.603
 21
-62.263
  0
LINE
  8
0
 10
6.603
 20
-62.263
 11
11.926
 21
-60.825
  0
LINE
  8
0
 10
11.926
 20
-60.825
 11
12.121
 21
-60.779
  0
LINE
  8
0
 10
12.121
 20
-60.779
 11
15.193
 21
-60.132
  0
LINE
  8
0
 10
15.193
 20
-60.132
 11
17.428
 21
-59.677
  0
LINE
  8
0
 10
17.428
 20
-59.677
 11
17.504
 21
-59.654
  0
LINE
  8
0
 10
17.504
 20
-59.654
 11
17.535
 21
-59.654
  0
LINE
  8
0
 10
17.535
 20
-59.654
 11
17.975
 21
-59.589
  0
LINE
  8
0
 10
17.975
 20
-59.589
 11
19.065
 21
-59.436
  0
LINE
  8
0
 10
19.065
 20
-59.436
 11
19.253
 21
-59.397
  0
LINE
  8
0
 10
19.253
 20
-59.397
 11
19.731
 21
-59.329
  0
LINE
  8
0
 10
19.731
 20
-59.329
 11
21.747
 21
-59.023
  0
LINE
  8
0
 10
21.747
 20
-59.023
 11
23.01
 21
-58.835
  0
LINE
  8
0
 10
23.01
 20
-58.835
 11
28.524
 21
-58.338
  0
LINE
  8
0
 10
28.524
 20
-58.338
 11
33.517
 21
-58.177
  0
LINE
  8
0
 10
33.517
 20
-58.177
 11
34.913
 21
-58.177
  0
LINE
  8
0
 10
34.913
 20
-58.177
 11
38.717
 21
-58.284
  0
LINE
  8
0
 10
38.717
 20
-58.284
 11
39.524
 21
-58.292
  0
LINE
  8
0
 10
39.524
 20
-58.292
 11
39.926
 21
-58.338
  0
LINE
  8
0
 10
39.926
 20
-58.338
 11
39.903
 21
-58.338
  0
LINE
  8
0
 10
39.903
 20
-58.338
 11
42.78
 21
-58.583
  0
LINE
  8
0
 10
42.78
 20
-58.583
 11
44.85
 21
-58.766
  0
LINE
  8
0
 10
44.85
 20
-58.766
 11
49.617
 21
-59.441
  0
LINE
  8
0
 10
49.617
 20
-59.441
 11
54.164
 21
-60.407
  0
LINE
  8
0
 10
54.164
 20
-60.407
 11
62.085
 21
-62.743
  0
LINE
  8
0
 10
62.085
 20
-62.743
 11
67.589
 21
-64.832
  0
LINE
  8
0
 10
67.589
 20
-64.832
 11
69.652
 21
-65.738
  0
LINE
  8
0
 10
69.652
 20
-65.738
 11
110.053
 21
-57.68
  0
LINE
  8
0
 10
110.053
 20
-57.68
 11
111.457
 21
-56.853
  0
LINE
  8
0
 10
111.457
 20
-56.853
 11
112.452
 21
-55.705
  0
LINE
  8
0
 10
112.452
 20
-55.705
 11
112.876
 21
-54.32
  0
LINE
  8
0
 10
112.876
 20
-54.32
 11
113.89
 21
-39.039
  0
LINE
  8
0
 10
113.89
 20
-39.039
 11
114.594
 21
-23.741
  0
LINE
  8
0
 10
114.594
 20
-23.741
 11
115.011
 21
-8.44099
  0
LINE
  8
0
 10
115.011
 20
-8.44099
 11
115.111
 21
6.853
  0
LINE
  8
0
 10
115.111
 20
6.853
 11
114.91
 21
22.134
  0
LINE
  8
0
 10
114.91
 20
22.134
 11
114.399
 21
37.398
  0
LINE
  8
0
 10
114.399
 20
37.398
 11
113.594
 21
52.657
  0
LINE
  8
0
 10
113.594
 20
52.657
 11
112.479
 21
67.866
  0
LINE
  8
0
 10
112.479
 20
67.866
 11
112.038
 21
69.217
  0
LINE
  8
0
 10
112.038
 20
69.217
 11
111.044
 21
70.296
  0
LINE
  8
0
 10
111.044
 20
70.296
 11
109.647
 21
71.019
  0
LINE
  8
0
 10
109.647
 20
71.019
 11
107.967
 21
71.287
  0
LINE
  8
0
 10
107.967
 20
71.287
 11
-57.069
 21
70.82
  0
LINE
  8
0
 10
-57.069
 20
70.82
 11
-59.005
 21
70.529
  0
LINE
  8
0
 10
-59.005
 20
70.529
 11
-60.642
 21
69.711
  0
LINE
  8
0
 10
-60.642
 20
69.711
 11
-61.809
 21
68.54
  0
LINE
  8
0
 10
-61.809
 20
68.54
 11
-62.326
 21
67.093
  0
LINE
  8
0
 10
-62.326
 20
67.093
 11
-63.638
 21
50.589
  0
LINE
  8
0
 10
-63.638
 20
50.589
 11
-64.591
 21
34.039
  0
LINE
  8
0
 10
-64.591
 20
34.039
 11
-65.193
 21
17.449
  0
LINE
  8
0
 10
-65.193
 20
17.449
 11
-65.437
 21
0.86499
  0
LINE
  8
0
 10
-65.437
 20
0.86499
 11
-65.319
 21
-15.734
  0
LINE
  8
0
 10
-65.319
 20
-15.734
 11
-64.848
 21
-32.293
  0
LINE
  8
0
 10
-64.848
 20
-32.293
 11
-64.021
 21
-48.787
  0
LINE
  8
0
 10
-64.021
 20
-48.787
 11
-62.823
 21
-65.213
  0
LINE
  8
0
 10
-62.823
 20
-65.213
 11
-62.307
 21
-66.629
  0
LINE
  8
0
 10
-62.307
 20
-66.629
 11
-61.163
 21
-67.746
  0
LINE
  8
0
 10
-61.163
 20
-67.746
 11
-59.564
 21
-68.454
  0
LINE
  8
0
 10
-59.564
 20
-68.454
 11
-36.215
 21
-69.92
  0
LINE
  8
0
 10
-36.215
 20
-69.92
 11
-13.626
 21
-71.155
  0
LINE
  8
0
 10
-13.626
 20
-71.155
 11
-8.797
 21
-68.479
  0
LINE
  8
0
 10
30.521
 20
-34.305
 11
25.708
 21
-34.305
  0
LINE
  8
0
 10
25.708
 20
-34.305
 11
13.363
 21
-33.521
  0
LINE
  8
0
 10
13.363
 20
-33.521
 11
5.394
 21
-32.736
  0
LINE
  8
0
 10
5.394
 20
-32.736
 11
13.305
 21
-31.952
  0
LINE
  8
0
 10
13.305
 20
-31.952
 11
25.708
 21
-31.168
  0
LINE
  8
0
 10
25.708
 20
-31.168
 11
30.192
 21
-31.168
  0
LINE
  8
0
 10
30.192
 20
-31.168
 11
29.101
 21
-20.309
  0
LINE
  8
0
 10
29.101
 20
-20.309
 11
-1.045
 21
-21.939
  0
LINE
  8
0
 10
-1.045
 20
-21.939
 11
-3.71199
 21
-33.655
  0
LINE
  8
0
 10
-3.71199
 20
-33.655
 11
-6.379
 21
-21.939
  0
LINE
  8
0
 10
-6.379
 20
-21.939
 11
-30.113
 21
-19.414
  0
LINE
  8
0
 10
-30.113
 20
-19.414
 11
-6.379
 21
-16.904
  0
LINE
  8
0
 10
-6.379
 20
-16.904
 11
-3.877
 21
-5.89899
  0
LINE
  8
0
 10
-3.877
 20
-5.89899
 11
-37.402
 21
-4.767
  0
LINE
  8
0
 10
-37.402
 20
-4.767
 11
27.315
 21
-2.57399
  0
LINE
  8
0
 10
27.315
 20
-2.57399
 11
26.343
 21
7.03299
  0
LINE
  8
0
 10
26.343
 20
7.03299
 11
6.40399
 21
8.39899
  0
LINE
  8
0
 10
6.40399
 20
8.39899
 11
4.23099
 21
-1.14
  0
LINE
  8
0
 10
4.23099
 20
-1.14
 11
1.98099
 21
8.70499
  0
LINE
  8
0
 10
1.98099
 20
8.70499
 11
-37.207
 21
11.399
  0
LINE
  8
0
 10
-37.207
 20
11.399
 11
1.87
 21
14.077
  0
LINE
  8
0
 10
1.87
 20
14.077
 11
4.23099
 21
24.462
  0
LINE
  8
0
 10
4.23099
 20
24.462
 11
6.519
 21
14.399
  0
LINE
  8
0
 10
6.519
 20
14.399
 11
26.347
 21
15.761
  0
LINE
  8
0
 10
26.347
 20
15.761
 11
27.923
 21
28.594
  0
LINE
  8
0
 10
27.923
 20
28.594
 11
17.236
 21
29.918
  0
LINE
  8
0
 10
17.236
 20
29.918
 11
28.26
 21
31.288
  0
LINE
  8
0
 10
28.26
 20
31.288
 11
29.469
 21
41.175
  0
LINE
  8
0
 10
29.469
 20
41.175
 11
25.329
 21
41.175
  0
LINE
  8
0
 10
25.329
 20
41.175
 11
18.463
 21
41.552
  0
LINE
  8
0
 10
18.463
 20
41.552
 11
10.285
 21
42.384
  0
LINE
  8
0
 10
10.285
 20
42.384
 11
0.568985
 21
43.593
  0
LINE
  8
0
 10
0.568985
 20
43.593
 11
10.211
 21
44.806
  0
LINE
  8
0
 10
10.211
 20
44.806
 11
18.38
 21
45.64
  0
LINE
  8
0
 10
18.38
 20
45.64
 11
25.329
 21
46.019
  0
LINE
  8
0
 10
25.329
 20
46.019
 11
30.066
 21
46.019
  0
LINE
  8
0
 10
30.066
 20
46.019
 11
30.969
 21
53.319
  0
LINE
  8
0
 10
30.969
 20
53.319
 11
31.864
 21
46.019
  0
LINE
  8
0
 10
31.864
 20
46.019
 11
35.694
 21
46.019
  0
LINE
  8
0
 10
35.694
 20
46.019
 11
42.615
 21
45.64
  0
LINE
  8
0
 10
42.615
 20
45.64
 11
50.906
 21
44.806
  0
LINE
  8
0
 10
50.906
 20
44.806
 11
60.782
 21
43.593
  0
LINE
  8
0
 10
60.782
 20
43.593
 11
50.977
 21
42.384
  0
LINE
  8
0
 10
50.977
 20
42.384
 11
42.696
 21
41.552
  0
LINE
  8
0
 10
42.696
 20
41.552
 11
35.694
 21
41.175
  0
LINE
  8
0
 10
35.694
 20
41.175
 11
32.465
 21
41.175
  0
LINE
  8
0
 10
32.465
 20
41.175
 11
33.616
 21
31.839
  0
LINE
  8
0
 10
33.616
 20
31.839
 11
41.135
 21
32.282
  0
LINE
  8
0
 10
41.135
 20
32.282
 11
51.129
 21
32.282
  0
LINE
  8
0
 10
51.129
 20
32.282
 11
57.813
 21
31.913
  0
LINE
  8
0
 10
57.813
 20
31.913
 11
65.813
 21
31.1
  0
LINE
  8
0
 10
65.813
 20
31.1
 11
75.341
 21
29.918
  0
LINE
  8
0
 10
75.341
 20
29.918
 11
65.878
 21
28.745
  0
LINE
  8
0
 10
65.878
 20
28.745
 11
57.885
 21
27.939
  0
LINE
  8
0
 10
57.885
 20
27.939
 11
51.129
 21
27.572
  0
LINE
  8
0
 10
51.129
 20
27.572
 11
41.135
 21
27.572
  0
LINE
  8
0
 10
41.135
 20
27.572
 11
34.095
 21
27.974
  0
LINE
  8
0
 10
34.095
 20
27.974
 11
35.606
 21
15.765
  0
LINE
  8
0
 10
35.606
 20
15.765
 11
52.369
 21
11.399
  0
LINE
  8
0
 10
52.369
 20
11.399
 11
35.606
 21
7.02899
  0
LINE
  8
0
 10
35.606
 20
7.02899
 11
34.657
 21
-2.33699
  0
LINE
  8
0
 10
34.657
 20
-2.33699
 11
55.365
 21
-1.633
  0
LINE
  8
0
 10
55.365
 20
-1.633
 11
58.494
 21
19.323
  0
LINE
  8
0
 10
58.494
 20
19.323
 11
61.67
 21
-1.851
  0
LINE
  8
0
 10
61.67
 20
-1.851
 11
89.621
 21
-4.767
  0
LINE
  8
0
 10
89.621
 20
-4.767
 11
61.62
 21
-7.67899
  0
LINE
  8
0
 10
61.62
 20
-7.67899
 11
59.895
 21
-17.852
  0
LINE
  8
0
 10
59.895
 20
-17.852
 11
59.918
 21
-17.852
  0
LINE
  8
0
 10
59.918
 20
-17.852
 11
59.918
 21
-17.856
  0
LINE
  8
0
 10
59.918
 20
-17.856
 11
65.657
 21
-17.856
  0
LINE
  8
0
 10
65.657
 20
-17.856
 11
74.08
 21
-18.641
  0
LINE
  8
0
 10
74.08
 20
-18.641
 11
79.55
 21
-19.425
  0
LINE
  8
0
 10
79.55
 20
-19.425
 11
74.12
 21
-20.213
  0
LINE
  8
0
 10
74.12
 20
-20.213
 11
65.657
 21
-21.001
  0
LINE
  8
0
 10
65.657
 20
-21.001
 11
59.918
 21
-21.001
  0
LINE
  8
0
 10
59.918
 20
-21.001
 11
59.363
 21
-20.986
  0
LINE
  8
0
 10
59.363
 20
-20.986
 11
58.494
 21
-26.044
  0
LINE
  8
0
 10
58.494
 20
-26.044
 11
57.626
 21
-20.883
  0
LINE
  8
0
 10
57.626
 20
-20.883
 11
50.201
 21
-20.017
  0
LINE
  8
0
 10
50.201
 20
-20.017
 11
46.193
 21
-19.421
  0
LINE
  8
0
 10
46.193
 20
-19.421
 11
49.951
 21
-18.856
  0
LINE
  8
0
 10
49.951
 20
-18.856
 11
57.132
 21
-17.998
  0
LINE
  8
0
 10
57.132
 20
-17.998
 11
55.422
 21
-7.89699
  0
LINE
  8
0
 10
55.422
 20
-7.89699
 11
34.16
 21
-7.181
  0
LINE
  8
0
 10
34.16
 20
-7.181
 11
32.993
 21
-18.744
  0
LINE
  8
0
 10
32.993
 20
-18.744
 11
45.428
 21
-19.41
  0
LINE
  8
0
 10
45.428
 20
-19.41
 11
32.859
 21
-20.091
  0
LINE
  8
0
 10
32.859
 20
-20.091
 11
31.745
 21
-31.168
  0
LINE
  8
0
 10
31.745
 20
-31.168
 11
34.198
 21
-31.168
  0
LINE
  8
0
 10
34.198
 20
-31.168
 11
46.67
 21
-31.952
  0
LINE
  8
0
 10
46.67
 20
-31.952
 11
54.772
 21
-32.736
  0
LINE
  8
0
 10
54.772
 20
-32.736
 11
46.729
 21
-33.521
  0
LINE
  8
0
 10
46.729
 20
-33.521
 11
34.198
 21
-34.305
  0
LINE
  8
0
 10
34.198
 20
-34.305
 11
31.432
 21
-34.305
  0
LINE
  8
0
 10
31.432
 20
-34.305
 11
30.969
 21
-38.828
  0
LINE
  8
0
 10
30.969
 20
-38.828
 11
30.521
 21
-34.305
  0
LINE
  8
0
 10
27.762
 20
-6.97099
 11
-3.54399
 21
-5.91499
  0
LINE
  8
0
 10
-3.54399
 20
-5.91499
 11
-1.03799
 21
-16.911
  0
LINE
  8
0
 10
-1.03799
 20
-16.911
 11
28.929
 21
-18.53
  0
LINE
  8
0
 10
28.929
 20
-18.53
 11
27.762
 21
-6.97099
  0
LINE
  8
0
 10
-13.989
 20
28.357
 11
-23.369
 21
29.137
  0
LINE
  8
0
 10
-23.369
 20
29.137
 11
-29.421
 21
29.918
  0
LINE
  8
0
 10
-29.421
 20
29.918
 11
-23.412
 21
30.706
  0
LINE
  8
0
 10
-23.412
 20
30.706
 11
-13.989
 21
31.494
  0
LINE
  8
0
 10
-13.989
 20
31.494
 11
-7.53099
 21
31.494
  0
LINE
  8
0
 10
-7.53099
 20
31.494
 11
1.952
 21
30.706
  0
LINE
  8
0
 10
1.952
 20
30.706
 11
8.11099
 21
29.918
  0
LINE
  8
0
 10
8.11099
 20
29.918
 11
1.99699
 21
29.137
  0
LINE
  8
0
 10
1.99699
 20
29.137
 11
-7.53099
 21
28.357
  0
LINE
  8
0
 10
-7.53099
 20
28.357
 11
-13.989
 21
28.357
  0
LINE
  8
0
 10
72.69
 20
9.823
 11
67.377
 21
10.607
  0
LINE
  8
0
 10
67.377
 20
10.607
 11
63.947
 21
11.391
  0
LINE
  8
0
 10
63.947
 20
11.391
 11
67.354
 21
12.176
  0
LINE
  8
0
 10
67.354
 20
12.176
 11
72.69
 21
12.96
  0
LINE
  8
0
 10
72.69
 20
12.96
 11
76.344
 21
12.96
  0
LINE
  8
0
 10
76.344
 20
12.96
 11
81.719
 21
12.176
  0
LINE
  8
0
 10
81.719
 20
12.176
 11
85.205
 21
11.391
  0
LINE
  8
0
 10
85.205
 20
11.391
 11
81.746
 21
10.607
  0
LINE
  8
0
 10
81.746
 20
10.607
 11
76.344
 21
9.823
  0
LINE
  8
0
 10
76.344
 20
9.823
 11
72.69
 21
9.823
  0
LINE
  8
0
 10
-138.82
 20
34.98
 11
-139.82
 21
35.307
  0
LINE
  8
0
 10
-139.82
 20
35.307
 11
-140.604
 21
35.881
  0
LINE
  8
0
 10
-140.604
 20
35.881
 11
-141.479
 21
37.547
  0
LINE
  8
0
 10
-141.479
 20
37.547
 11
-141.525
 21
39.82
  0
LINE
  8
0
 10
-141.525
 20
39.82
 11
-141.025
 21
41.849
  0
LINE
  8
0
 10
-141.025
 20
41.849
 11
-140.022
 21
44.225
  0
LINE
  8
0
 10
-140.022
 20
44.225
 11
-136.802
 21
49.755
  0
LINE
  8
0
 10
-136.802
 20
49.755
 11
-132.454
 21
55.882
  0
LINE
  8
0
 10
-132.454
 20
55.882
 11
-127.57
 21
62.08
  0
LINE
  8
0
 10
-127.57
 20
62.08
 11
-118.562
 21
72.571
  0
LINE
  8
0
 10
-118.562
 20
72.571
 11
-114.508
 21
77.007
  0
LINE
  8
0
 10
-114.508
 20
77.007
 11
-108.341
 21
78.683
  0
LINE
  8
0
 10
-108.341
 20
78.683
 11
-103.113
 21
79.835
  0
LINE
  8
0
 10
-103.113
 20
79.835
 11
-98.664
 21
80.359
  0
LINE
  8
0
 10
-98.664
 20
80.359
 11
-96.234
 21
79.894
  0
LINE
  8
0
 10
-96.234
 20
79.894
 11
-95.154
 21
79.255
  0
LINE
  8
0
 10
-95.154
 20
79.255
 11
-94.223
 21
78.296
  0
LINE
  8
0
 10
-94.223
 20
78.296
 11
-93.486
 21
76.977
  0
LINE
  8
0
 10
-93.486
 20
76.977
 11
-92.985
 21
75.261
  0
LINE
  8
0
 10
-92.985
 20
75.261
 11
-92.765
 21
73.111
  0
LINE
  8
0
 10
-92.765
 20
73.111
 11
-92.871
 21
70.487
  0
LINE
  8
0
 10
-92.871
 20
70.487
 11
-95.694
 21
39.694
  0
LINE
  8
0
 10
-95.694
 20
39.694
 11
-96.039
 21
38.806
  0
LINE
  8
0
 10
-96.039
 20
38.806
 11
-96.793
 21
38.003
  0
LINE
  8
0
 10
-96.793
 20
38.003
 11
-97.983
 21
37.31
  0
LINE
  8
0
 10
-97.983
 20
37.31
 11
-99.788
 21
36.715
  0
LINE
  8
0
 10
-99.788
 20
36.715
 11
-104.878
 21
35.789
  0
LINE
  8
0
 10
-104.878
 20
35.789
 11
-111.339
 21
35.175
  0
LINE
  8
0
 10
-111.339
 20
35.175
 11
-118.445
 21
34.821
  0
LINE
  8
0
 10
-118.445
 20
34.821
 11
-131.692
 21
34.688
  0
LINE
  8
0
 10
-131.692
 20
34.688
 11
-138.82
 21
34.98
  0
LINE
  8
0
 10
-114.869
 20
39.718
 11
-110.108
 21
40.253
  0
LINE
  8
0
 10
-110.108
 20
40.253
 11
-111.964
 21
41.24
  0
LINE
  8
0
 10
-111.964
 20
41.24
 11
-115.873
 21
43.724
  0
LINE
  8
0
 10
-115.873
 20
43.724
 11
-117.818
 21
45.304
  0
LINE
  8
0
 10
-117.818
 20
45.304
 11
-119.343
 21
46.99
  0
LINE
  8
0
 10
-119.343
 20
46.99
 11
-120.135
 21
48.693
  0
LINE
  8
0
 10
-120.135
 20
48.693
 11
-120.159
 21
49.523
  0
LINE
  8
0
 10
-120.159
 20
49.523
 11
-119.884
 21
50.323
  0
LINE
  8
0
 10
-119.884
 20
50.323
 11
-118.492
 21
52.016
  0
LINE
  8
0
 10
-118.492
 20
52.016
 11
-116.647
 21
53.206
  0
LINE
  8
0
 10
-116.647
 20
53.206
 11
-114.496
 21
54.036
  0
LINE
  8
0
 10
-114.496
 20
54.036
 11
-112.184
 21
54.649
  0
LINE
  8
0
 10
-112.184
 20
54.649
 11
-107.654
 21
55.79
  0
LINE
  8
0
 10
-107.654
 20
55.79
 11
-105.727
 21
56.603
  0
LINE
  8
0
 10
-105.727
 20
56.603
 11
-104.219
 21
57.769
  0
LINE
  8
0
 10
-104.219
 20
57.769
 11
-102.509
 21
60.142
  0
LINE
  8
0
 10
-102.509
 20
60.142
 11
-101.318
 21
62.714
  0
LINE
  8
0
 10
-101.318
 20
62.714
 11
-100.555
 21
65.326
  0
LINE
  8
0
 10
-100.555
 20
65.326
 11
-100.131
 21
67.818
  0
LINE
  8
0
 10
-100.131
 20
67.818
 11
-99.944
 21
71.812
  0
LINE
  8
0
 10
-99.944
 20
71.812
 11
-100.041
 21
73.426
  0
LINE
  8
0
 10
-100.041
 20
73.426
 11
-101.855
 21
73.683
  0
LINE
  8
0
 10
-101.855
 20
73.683
 11
-106.067
 21
73.982
  0
LINE
  8
0
 10
-106.067
 20
73.982
 11
-110.834
 21
73.615
  0
LINE
  8
0
 10
-110.834
 20
73.615
 11
-112.848
 21
72.96
  0
LINE
  8
0
 10
-112.848
 20
72.96
 11
-114.309
 21
71.872
  0
LINE
  8
0
 10
-114.309
 20
71.872
 11
-126.401
 21
56.27
  0
LINE
  8
0
 10
-126.401
 20
56.27
 11
-135.698
 21
43.819
  0
LINE
  8
0
 10
-135.698
 20
43.819
 11
-136.304
 21
42.499
  0
LINE
  8
0
 10
-136.304
 20
42.499
 11
-136.156
 21
41.436
  0
LINE
  8
0
 10
-136.156
 20
41.436
 11
-135.351
 21
40.607
  0
LINE
  8
0
 10
-135.351
 20
40.607
 11
-133.988
 21
39.986
  0
LINE
  8
0
 10
-133.988
 20
39.986
 11
-129.985
 21
39.279
  0
LINE
  8
0
 10
-129.985
 20
39.279
 11
-124.937
 21
39.124
  0
LINE
  8
0
 10
-124.937
 20
39.124
 11
-114.869
 21
39.718
  0
LINE
  8
0
 10
137.23
 20
39.95
 11
137.242
 21
69.152
  0
LINE
  8
0
 10
137.242
 20
69.152
 11
137.525
 21
69.033
  0
LINE
  8
0
 10
137.525
 20
69.033
 11
138.731
 21
68.204
  0
LINE
  8
0
 10
138.731
 20
68.204
 11
139.93
 21
66.884
  0
LINE
  8
0
 10
139.93
 20
66.884
 11
142.228
 21
63.276
  0
LINE
  8
0
 10
142.228
 20
63.276
 11
145.843
 21
55.703
  0
LINE
  8
0
 10
145.843
 20
55.703
 11
147.008
 21
52.715
  0
LINE
  8
0
 10
147.008
 20
52.715
 11
147.88
 21
49.531
  0
LINE
  8
0
 10
147.88
 20
49.531
 11
148.427
 21
46.158
  0
LINE
  8
0
 10
148.427
 20
46.158
 11
148.617
 21
42.602
  0
LINE
  8
0
 10
148.617
 20
42.602
 11
148.376
 21
41.573
  0
LINE
  8
0
 10
148.376
 20
41.573
 11
147.787
 21
40.696
  0
LINE
  8
0
 10
147.787
 20
40.696
 11
146.941
 21
40.084
  0
LINE
  8
0
 10
146.941
 20
40.084
 11
145.931
 21
39.809
  0
LINE
  8
0
 10
145.931
 20
39.809
 11
144.906
 21
39.77
  0
LINE
  8
0
 10
144.906
 20
39.77
 11
143.869
 21
39.724
  0
LINE
  8
0
 10
143.869
 20
39.724
 11
143.008
 21
39.702
  0
LINE
  8
0
 10
143.008
 20
39.702
 11
137.23
 21
39.95
  0
LINE
  8
0
 10
144.531
 20
26.241
 11
137.238
 21
27.282
  0
LINE
  8
0
 10
137.238
 20
27.282
 11
137.238
 21
30.4759
  0
LINE
  8
0
 10
137.238
 20
30.4759
 11
137.234
 21
30.477
  0
LINE
  8
0
 10
137.234
 20
30.477
 11
137.238
 21
30.477
  0
LINE
  8
0
 10
137.238
 20
30.477
 11
137.238
 21
30.4759
  0
LINE
  8
0
 10
137.238
 20
30.4759
 11
140.966
 21
29.477
  0
LINE
  8
0
 10
140.966
 20
29.477
 11
144.925
 21
28.127
  0
LINE
  8
0
 10
144.925
 20
28.127
 11
146.907
 21
27.293
  0
LINE
  8
0
 10
146.907
 20
27.293
 11
146.907
 21
25.648
  0
LINE
  8
0
 10
146.907
 20
25.648
 11
144.531
 21
26.241
  0
LINE
  8
0
 10
-100.864
 20
18.722
 11
-104.575
 21
19.391
  0
LINE
  8
0
 10
-104.575
 20
19.391
 11
-108.001
 21
19.768
  0
LINE
  8
0
 10
-108.001
 20
19.768
 11
-112.262
 21
20.062
  0
LINE
  8
0
 10
-112.262
 20
20.062
 11
-120.76
 21
20.609
  0
LINE
  8
0
 10
-120.76
 20
20.609
 11
-124.647
 21
20.624
  0
LINE
  8
0
 10
-124.647
 20
20.624
 11
-129.281
 21
20.486
  0
LINE
  8
0
 10
-129.281
 20
20.486
 11
-133.54
 21
20.448
  0
LINE
  8
0
 10
-133.54
 20
20.448
 11
-138.12
 21
20.062
  0
LINE
  8
0
 10
-138.12
 20
20.062
 11
-138.12
 21
22.396
  0
LINE
  8
0
 10
-138.12
 20
22.396
 11
-133.746
 21
23.482
  0
LINE
  8
0
 10
-133.746
 20
23.482
 11
-129.388
 21
24.102
  0
LINE
  8
0
 10
-129.388
 20
24.102
 11
-124.644
 21
24.247
  0
LINE
  8
0
 10
-124.644
 20
24.247
 11
-120.706
 21
24.224
  0
LINE
  8
0
 10
-120.706
 20
24.224
 11
-112.017
 21
23.67
  0
LINE
  8
0
 10
-112.017
 20
23.67
 11
-107.69
 21
22.794
  0
LINE
  8
0
 10
-107.69
 20
22.794
 11
-104.234
 21
21.826
  0
LINE
  8
0
 10
-104.234
 20
21.826
 11
-100.516
 21
20.479
  0
LINE
  8
0
 10
-100.516
 20
20.479
 11
-98.798
 21
19.69
  0
LINE
  8
0
 10
-98.798
 20
19.69
 11
-98.798
 21
18.164
  0
LINE
  8
0
 10
-98.798
 20
18.164
 11
-100.864
 21
18.722
  0
LINE
  8
0
 10
144.033
 20
16.178
 11
137.226
 21
16.239
  0
LINE
  8
0
 10
137.226
 20
16.239
 11
137.226
 21
20.008
  0
LINE
  8
0
 10
137.226
 20
20.008
 11
144.221
 21
18.489
  0
LINE
  8
0
 10
144.221
 20
18.489
 11
146.903
 21
17.701
  0
LINE
  8
0
 10
146.903
 20
17.701
 11
146.903
 21
15.964
  0
LINE
  8
0
 10
146.903
 20
15.964
 11
144.033
 21
16.178
  0
LINE
  8
0
 10
-101.288
 20
8.53699
 11
-107.973
 21
8.58099
  0
LINE
  8
0
 10
-107.973
 20
8.58099
 11
-111.937
 21
8.46799
  0
LINE
  8
0
 10
-111.937
 20
8.46799
 11
-119.83
 21
8.62099
  0
LINE
  8
0
 10
-119.83
 20
8.62099
 11
-124.644
 21
8.506
  0
LINE
  8
0
 10
-124.644
 20
8.506
 11
-127.747
 21
8.36899
  0
LINE
  8
0
 10
-127.747
 20
8.36899
 11
-131.6
 21
8.46599
  0
LINE
  8
0
 10
-131.6
 20
8.46599
 11
-138.12
 21
8.353
  0
LINE
  8
0
 10
-138.12
 20
8.353
 11
-138.12
 21
10.771
  0
LINE
  8
0
 10
-138.12
 20
10.771
 11
-131.644
 21
12.403
  0
LINE
  8
0
 10
-131.644
 20
12.403
 11
-127.831
 21
12.998
  0
LINE
  8
0
 10
-127.831
 20
12.998
 11
-124.647
 21
13.136
  0
LINE
  8
0
 10
-124.647
 20
13.136
 11
-119.849
 21
13.251
  0
LINE
  8
0
 10
-119.849
 20
13.251
 11
-111.853
 21
13.105
  0
LINE
  8
0
 10
-111.853
 20
13.105
 11
-107.857
 21
12.478
  0
LINE
  8
0
 10
-107.857
 20
12.478
 11
-101.135
 21
10.833
  0
LINE
  8
0
 10
-101.135
 20
10.833
 11
-98.794
 21
10.045
  0
LINE
  8
0
 10
-98.794
 20
10.045
 11
-98.794
 21
8.31499
  0
LINE
  8
0
 10
-98.794
 20
8.31499
 11
-101.288
 21
8.53699
  0
LINE
  8
0
 10
137.226
 20
9.448
 11
146.903
 21
9.073
  0
LINE
  8
0
 10
146.903
 20
9.073
 11
146.903
 21
7.54999
  0
LINE
  8
0
 10
146.903
 20
7.54999
 11
137.226
 21
5.65999
  0
LINE
  8
0
 10
137.226
 20
5.65999
 11
137.226
 21
9.448
  0
LINE
  8
0
 10
-138.12
 20
-1.64799
 11
-138.12
 21
-0.201996
  0
LINE
  8
0
 10
-138.12
 20
-0.201996
 11
-125.589
 21
1.592
  0
LINE
  8
0
 10
-125.589
 20
1.592
 11
-124.647
 21
1.61499
  0
LINE
  8
0
 10
-124.647
 20
1.61499
 11
-111.351
 21
1.864
  0
LINE
  8
0
 10
-111.351
 20
1.864
 11
-98.798
 21
0.585999
  0
LINE
  8
0
 10
-98.798
 20
0.585999
 11
-98.798
 21
-0.905991
  0
LINE
  8
0
 10
-98.798
 20
-0.905991
 11
-111.187
 21
-2.674
  0
LINE
  8
0
 10
-111.187
 20
-2.674
 11
-125.432
 21
-2.94899
  0
LINE
  8
0
 10
-125.432
 20
-2.94899
 11
-138.12
 21
-1.64799
  0
LINE
  8
0
 10
137.23
 20
-1.42599
 11
144.282
 21
-0.798996
  0
LINE
  8
0
 10
144.282
 20
-0.798996
 11
146.907
 21
-0.423996
  0
LINE
  8
0
 10
146.907
 20
-0.423996
 11
146.907
 21
-1.98499
  0
LINE
  8
0
 10
146.907
 20
-1.98499
 11
144.569
 21
-2.77299
  0
LINE
  8
0
 10
144.569
 20
-2.77299
 11
137.23
 21
-4.80099
  0
LINE
  8
0
 10
137.23
 20
-4.80099
 11
137.23
 21
-1.42599
  0
LINE
  8
0
 10
-126.331
 20
-13.919
 11
-130.043
 21
-13.471
  0
LINE
  8
0
 10
-130.043
 20
-13.471
 11
-136.298
 21
-12.366
  0
LINE
  8
0
 10
-136.298
 20
-12.366
 11
-136.964
 21
-12.213
  0
LINE
  8
0
 10
-136.964
 20
-12.213
 11
-136.861
 21
-10.101
  0
LINE
  8
0
 10
-136.861
 20
-10.101
 11
-136.203
 21
-10.066
  0
LINE
  8
0
 10
-136.203
 20
-10.066
 11
-126.22
 21
-9.33499
  0
LINE
  8
0
 10
-126.22
 20
-9.33499
 11
-124.016
 21
-9.35799
  0
LINE
  8
0
 10
-124.016
 20
-9.35799
 11
-118.835
 21
-9.28899
  0
LINE
  8
0
 10
-118.835
 20
-9.28899
 11
-111.458
 21
-8.89499
  0
LINE
  8
0
 10
-111.458
 20
-8.89499
 11
-107.768
 21
-8.89799
  0
LINE
  8
0
 10
-107.768
 20
-8.89799
 11
-101.526
 21
-8.71899
  0
LINE
  8
0
 10
-101.526
 20
-8.71899
 11
-99.337
 21
-8.48999
  0
LINE
  8
0
 10
-99.337
 20
-8.48999
 11
-99.425
 21
-10.265
  0
LINE
  8
0
 10
-99.425
 20
-10.265
 11
-101.403
 21
-10.992
  0
LINE
  8
0
 10
-101.403
 20
-10.992
 11
-107.682
 21
-12.759
  0
LINE
  8
0
 10
-107.682
 20
-12.759
 11
-111.416
 21
-13.479
  0
LINE
  8
0
 10
-111.416
 20
-13.479
 11
-118.874
 21
-13.877
  0
LINE
  8
0
 10
-118.874
 20
-13.877
 11
-124.261
 21
-13.942
  0
LINE
  8
0
 10
-124.261
 20
-13.942
 11
-126.331
 21
-13.919
  0
LINE
  8
0
 10
137.223
 20
-11.344
 11
140.879
 21
-10.621
  0
LINE
  8
0
 10
140.879
 20
-10.621
 11
144.791
 21
-9.588
  0
LINE
  8
0
 10
144.791
 20
-9.588
 11
146.907
 21
-8.868
  0
LINE
  8
0
 10
146.907
 20
-8.868
 11
146.907
 21
-10.743
  0
LINE
  8
0
 10
146.907
 20
-10.743
 11
145.292
 21
-11.62
  0
LINE
  8
0
 10
145.292
 20
-11.62
 11
141.097
 21
-13.531
  0
LINE
  8
0
 10
141.097
 20
-13.531
 11
137.223
 21
-14.994
  0
LINE
  8
0
 10
137.223
 20
-14.994
 11
137.223
 21
-11.344
  0
LINE
  8
0
 10
-128.03
 20
-25.153
 11
-131.519
 21
-24.736
  0
LINE
  8
0
 10
-131.519
 20
-24.736
 11
-137.519
 21
-23.446
  0
LINE
  8
0
 10
-137.519
 20
-23.446
 11
-137.408
 21
-20.982
  0
LINE
  8
0
 10
-137.408
 20
-20.982
 11
-131.427
 21
-20.955
  0
LINE
  8
0
 10
-131.427
 20
-20.955
 11
-127.93
 21
-20.791
  0
LINE
  8
0
 10
-127.93
 20
-20.791
 11
-124.567
 21
-20.806
  0
LINE
  8
0
 10
-124.567
 20
-20.806
 11
-120.029
 21
-20.638
  0
LINE
  8
0
 10
-120.029
 20
-20.638
 11
-114.886
 21
-20.165
  0
LINE
  8
0
 10
-114.886
 20
-20.165
 11
-112.136
 21
-19.769
  0
LINE
  8
0
 10
-112.136
 20
-19.769
 11
-108.189
 21
-19.353
  0
LINE
  8
0
 10
-108.189
 20
-19.353
 11
-105.007
 21
-18.878
  0
LINE
  8
0
 10
-105.007
 20
-18.878
 11
-101.552
 21
-18.09
  0
LINE
  8
0
 10
-101.552
 20
-18.09
 11
-99.789
 21
-17.52
  0
LINE
  8
0
 10
-99.789
 20
-17.52
 11
-99.884
 21
-19.417
  0
LINE
  8
0
 10
-99.884
 20
-19.417
 11
-101.25
 21
-20.206
  0
LINE
  8
0
 10
-101.25
 20
-20.206
 11
-104.716
 21
-21.816
  0
LINE
  8
0
 10
-104.716
 20
-21.816
 11
-107.924
 21
-23.006
  0
LINE
  8
0
 10
-107.924
 20
-23.006
 11
-111.929
 21
-24.116
  0
LINE
  8
0
 10
-111.929
 20
-24.116
 11
-114.743
 21
-24.514
  0
LINE
  8
0
 10
-114.743
 20
-24.514
 11
-119.979
 21
-24.992
  0
LINE
  8
0
 10
-119.979
 20
-24.992
 11
-124.793
 21
-25.168
  0
LINE
  8
0
 10
-124.793
 20
-25.168
 11
-128.03
 21
-25.153
  0
LINE
  8
0
 10
137.211
 20
-59.96
 11
137.272
 21
-59.922
  0
LINE
  8
0
 10
137.272
 20
-59.922
 11
138.707
 21
-58.919
  0
LINE
  8
0
 10
138.707
 20
-58.919
 11
141.045
 21
-56.926
  0
LINE
  8
0
 10
141.045
 20
-56.926
 11
141.733
 21
-56.033
  0
LINE
  8
0
 10
141.733
 20
-56.033
 11
141.979
 21
-55.258
  0
LINE
  8
0
 10
141.979
 20
-55.258
 11
141.477
 21
-52.878
  0
LINE
  8
0
 10
141.477
 20
-52.878
 11
140.119
 21
-50.268
  0
LINE
  8
0
 10
140.119
 20
-50.268
 11
138.095
 21
-48.202
  0
LINE
  8
0
 10
138.095
 20
-48.202
 11
137.219
 21
-47.728
  0
LINE
  8
0
 10
137.219
 20
-47.728
 11
137.219
 21
-28.267
  0
LINE
  8
0
 10
137.219
 20
-28.267
 11
138.137
 21
-28.026
  0
LINE
  8
0
 10
138.137
 20
-28.026
 11
143.547
 21
-25.807
  0
LINE
  8
0
 10
143.547
 20
-25.807
 11
144.443
 21
-26.844
  0
LINE
  8
0
 10
144.443
 20
-26.844
 11
146.688
 21
-29.785
  0
LINE
  8
0
 10
146.688
 20
-29.785
 11
148.95
 21
-33.456
  0
LINE
  8
0
 10
148.95
 20
-33.456
 11
150.883
 21
-37.747
  0
LINE
  8
0
 10
150.883
 20
-37.747
 11
152.133
 21
-42.577
  0
LINE
  8
0
 10
152.133
 20
-42.577
 11
152.445
 21
-46.028
  0
LINE
  8
0
 10
152.445
 20
-46.028
 11
152.366
 21
-49.666
  0
LINE
  8
0
 10
152.366
 20
-49.666
 11
151.717
 21
-53.98
  0
LINE
  8
0
 10
151.717
 20
-53.98
 11
150.188
 21
-58.521
  0
LINE
  8
0
 10
150.188
 20
-58.521
 11
148.996
 21
-60.736
  0
LINE
  8
0
 10
148.996
 20
-60.736
 11
147.467
 21
-62.839
  0
LINE
  8
0
 10
147.467
 20
-62.839
 11
145.563
 21
-64.775
  0
LINE
  8
0
 10
145.563
 20
-64.775
 11
143.245
 21
-66.486
  0
LINE
  8
0
 10
143.245
 20
-66.486
 11
140.474
 21
-67.918
  0
LINE
  8
0
 10
140.474
 20
-67.918
 11
137.211
 21
-69.013
  0
LINE
  8
0
 10
137.211
 20
-69.013
 11
137.211
 21
-59.96
  0
LINE
  8
0
 10
-118.962
 20
-81.953
 11
-120.913
 21
-81.865
  0
LINE
  8
0
 10
-120.913
 20
-81.865
 11
-121.242
 21
-81.819
  0
LINE
  8
0
 10
-121.242
 20
-81.819
 11
-125.045
 21
-81.222
  0
LINE
  8
0
 10
-125.045
 20
-81.222
 11
-125.956
 21
-80.989
  0
LINE
  8
0
 10
-125.956
 20
-80.989
 11
-126.036
 21
-80.958
  0
LINE
  8
0
 10
-126.036
 20
-80.958
 11
-127.031
 21
-80.71
  0
LINE
  8
0
 10
-127.031
 20
-80.71
 11
-127.995
 21
-80.396
  0
LINE
  8
0
 10
-127.995
 20
-80.396
 11
-128.864
 21
-80.097
  0
LINE
  8
0
 10
-128.864
 20
-80.097
 11
-129.036
 21
-80.04
  0
LINE
  8
0
 10
-129.036
 20
-80.04
 11
-130.104
 21
-79.6
  0
LINE
  8
0
 10
-130.104
 20
-79.6
 11
-130.349
 21
-79.485
  0
LINE
  8
0
 10
-130.349
 20
-79.485
 11
-131.007
 21
-79.206
  0
LINE
  8
0
 10
-131.007
 20
-79.206
 11
-130.976
 21
-79.206
  0
LINE
  8
0
 10
-130.976
 20
-79.206
 11
-132.051
 21
-78.643
  0
LINE
  8
0
 10
-132.051
 20
-78.643
 11
-131.963
 21
-78.697
  0
LINE
  8
0
 10
-131.963
 20
-78.697
 11
-132.881
 21
-78.2
  0
LINE
  8
0
 10
-132.881
 20
-78.2
 11
-133.486
 21
-77.802
  0
LINE
  8
0
 10
-133.486
 20
-77.802
 11
-133.895
 21
-77.538
  0
LINE
  8
0
 10
-133.895
 20
-77.538
 11
-123.693
 21
-77.038
  0
LINE
  8
0
 10
-123.693
 20
-77.038
 11
-113.284
 21
-76.684
  0
LINE
  8
0
 10
-113.284
 20
-76.684
 11
-117.868
 21
-73.966
  0
LINE
  8
0
 10
-117.868
 20
-73.966
 11
-121.487
 21
-71.646
  0
LINE
  8
0
 10
-121.487
 20
-71.646
 11
-124.112
 21
-69.644
  0
LINE
  8
0
 10
-124.112
 20
-69.644
 11
-124.575
 21
-68.939
  0
LINE
  8
0
 10
-124.575
 20
-68.939
 11
-124.805
 21
-67.989
  0
LINE
  8
0
 10
-124.805
 20
-67.989
 11
-124.668
 21
-65.501
  0
LINE
  8
0
 10
-124.668
 20
-65.501
 11
-123.917
 21
-62.476
  0
LINE
  8
0
 10
-123.917
 20
-62.476
 11
-122.768
 21
-59.211
  0
LINE
  8
0
 10
-122.768
 20
-59.211
 11
-120.139
 21
-53.146
  0
LINE
  8
0
 10
-120.139
 20
-53.146
 11
-118.506
 21
-49.679
  0
LINE
  8
0
 10
-118.506
 20
-49.679
 11
-134.378
 21
-43.197
  0
LINE
  8
0
 10
-134.378
 20
-43.197
 11
-137.829
 21
-41.789
  0
LINE
  8
0
 10
-137.829
 20
-41.789
 11
-133.75
 21
-42.241
  0
LINE
  8
0
 10
-133.75
 20
-42.241
 11
-116.226
 21
-44.154
  0
LINE
  8
0
 10
-116.226
 20
-44.154
 11
-117.041
 21
-43.417
  0
LINE
  8
0
 10
-117.041
 20
-43.417
 11
-118.46
 21
-42.7
  0
LINE
  8
0
 10
-118.46
 20
-42.7
 11
-122.511
 21
-41.327
  0
LINE
  8
0
 10
-122.511
 20
-41.327
 11
-131.24
 21
-38.835
  0
LINE
  8
0
 10
-131.24
 20
-38.835
 11
-133.212
 21
-37.969
  0
LINE
  8
0
 10
-133.212
 20
-37.969
 11
-133.619
 21
-37.559
  0
LINE
  8
0
 10
-133.619
 20
-37.559
 11
-133.543
 21
-37.163
  0
LINE
  8
0
 10
-133.543
 20
-37.163
 11
-133.49
 21
-37.11
  0
LINE
  8
0
 10
-133.49
 20
-37.11
 11
-130.016
 21
-37.424
  0
LINE
  8
0
 10
-130.016
 20
-37.424
 11
-119.673
 21
-37.676
  0
LINE
  8
0
 10
-119.673
 20
-37.676
 11
-108.27
 21
-37.359
  0
LINE
  8
0
 10
-108.27
 20
-37.359
 11
-100.707
 21
-36.494
  0
LINE
  8
0
 10
-100.707
 20
-36.494
 11
-100.317
 21
-37.29
  0
LINE
  8
0
 10
-100.317
 20
-37.29
 11
-98.231
 21
-41.761
  0
LINE
  8
0
 10
-98.231
 20
-41.761
 11
-96.146
 21
-46.978
  0
LINE
  8
0
 10
-96.146
 20
-46.978
 11
-94.362
 21
-52.609
  0
LINE
  8
0
 10
-94.362
 20
-52.609
 11
-93.181
 21
-58.349
  0
LINE
  8
0
 10
-93.181
 20
-58.349
 11
-92.881
 21
-63.883
  0
LINE
  8
0
 10
-92.881
 20
-63.883
 11
-93.166
 21
-66.483
  0
LINE
  8
0
 10
-93.166
 20
-66.483
 11
-93.793
 21
-68.921
  0
LINE
  8
0
 10
-93.793
 20
-68.921
 11
-93.846
 21
-68.921
  0
LINE
  8
0
 10
-93.846
 20
-68.921
 11
-95.499
 21
-68.768
  0
LINE
  8
0
 10
-95.499
 20
-68.768
 11
-97.837
 21
-68.244
  0
LINE
  8
0
 10
-97.837
 20
-68.244
 11
-99.811
 21
-67.674
  0
LINE
  8
0
 10
-99.811
 20
-67.674
 11
-100.045
 21
-67.609
  0
LINE
  8
0
 10
-100.045
 20
-67.609
 11
-100.186
 21
-67.578
  0
LINE
  8
0
 10
-100.186
 20
-67.578
 11
-102.115
 21
-66.92
  0
LINE
  8
0
 10
-102.115
 20
-66.92
 11
-102.31
 21
-65.841
  0
LINE
  8
0
 10
-102.31
 20
-65.841
 11
-102.647
 21
-64.341
  0
LINE
  8
0
 10
-102.647
 20
-64.341
 11
-103.094
 21
-62.711
  0
LINE
  8
0
 10
-103.094
 20
-62.711
 11
-103.634
 21
-61.234
  0
LINE
  8
0
 10
-103.634
 20
-61.234
 11
-104.598
 21
-59.543
  0
LINE
  8
0
 10
-104.598
 20
-59.543
 11
-105.704
 21
-58.345
  0
LINE
  8
0
 10
-105.704
 20
-58.345
 11
-106.982
 21
-57.664
  0
LINE
  8
0
 10
-106.982
 20
-57.664
 11
-108.409
 21
-57.504
  0
LINE
  8
0
 10
-108.409
 20
-57.504
 11
-109.901
 21
-57.846
  0
LINE
  8
0
 10
-109.901
 20
-57.846
 11
-111.309
 21
-58.636
  0
LINE
  8
0
 10
-111.309
 20
-58.636
 11
-113.716
 21
-61.138
  0
LINE
  8
0
 10
-113.716
 20
-61.138
 11
-115.361
 21
-64.153
  0
LINE
  8
0
 10
-115.361
 20
-64.153
 11
-115.981
 21
-66.786
  0
LINE
  8
0
 10
-115.981
 20
-66.786
 11
-115.677
 21
-67.588
  0
LINE
  8
0
 10
-115.677
 20
-67.588
 11
-114.845
 21
-68.435
  0
LINE
  8
0
 10
-114.845
 20
-68.435
 11
-112.013
 21
-70.241
  0
LINE
  8
0
 10
-112.013
 20
-70.241
 11
-109.763
 21
-71.328
  0
LINE
  8
0
 10
-109.763
 20
-71.328
 11
-108.375
 21
-71.963
  0
LINE
  8
0
 10
-108.375
 20
-71.963
 11
-104.801
 21
-73.424
  0
LINE
  8
0
 10
-104.801
 20
-73.424
 11
-104.56
 21
-75.315
  0
LINE
  8
0
 10
-104.56
 20
-75.315
 11
-104.598
 21
-77.557
  0
LINE
  8
0
 10
-104.598
 20
-77.557
 11
-105.153
 21
-79.546
  0
LINE
  8
0
 10
-105.153
 20
-79.546
 11
-105.711
 21
-80.259
  0
LINE
  8
0
 10
-105.711
 20
-80.259
 11
-106.507
 21
-80.69
  0
LINE
  8
0
 10
-106.507
 20
-80.69
 11
-107.674
 21
-81.004
  0
LINE
  8
0
 10
-107.674
 20
-81.004
 11
-109.32
 21
-81.337
  0
LINE
  8
0
 10
-109.32
 20
-81.337
 11
-111.451
 21
-81.674
  0
LINE
  8
0
 10
-111.451
 20
-81.674
 11
-112.698
 21
-81.8
  0
LINE
  8
0
 10
-112.698
 20
-81.8
 11
-113.961
 21
-81.922
  0
LINE
  8
0
 10
-113.961
 20
-81.922
 11
-114.148
 21
-81.93
  0
LINE
  8
0
 10
-114.148
 20
-81.93
 11
-113.999
 21
-81.922
  0
LINE
  8
0
 10
-113.999
 20
-81.922
 11
-114.24
 21
-81.93
  0
LINE
  8
0
 10
-114.24
 20
-81.93
 11
-116.077
 21
-82.003
  0
LINE
  8
0
 10
-116.077
 20
-82.003
 11
-117.259
 21
-82.033
  0
LINE
  8
0
 10
-117.259
 20
-82.033
 11
-118.962
 21
-81.953
  0
LINE
  8
0
 10
74.4
 20
-103.632
 11
74.565
 21
-103.104
  0
LINE
  8
0
 10
74.565
 20
-103.104
 11
74.595
 21
-102.561
  0
LINE
  8
0
 10
74.595
 20
-102.561
 11
77.212
 21
-102.32
  0
LINE
  8
0
 10
77.212
 20
-102.32
 11
77.488
 21
-115.39
  0
LINE
  8
0
 10
77.488
 20
-115.39
 11
81.045
 21
-112.707
  0
LINE
  8
0
 10
81.045
 20
-112.707
 11
84.719
 21
-110.556
  0
LINE
  8
0
 10
84.719
 20
-110.556
 11
86.628
 21
-109.819
  0
LINE
  8
0
 10
86.628
 20
-109.819
 11
88.601
 21
-109.383
  0
LINE
  8
0
 10
88.601
 20
-109.383
 11
90.65
 21
-109.304
  0
LINE
  8
0
 10
90.65
 20
-109.304
 11
92.785
 21
-109.636
  0
LINE
  8
0
 10
92.785
 20
-109.636
 11
96.378
 21
-110.773
  0
LINE
  8
0
 10
96.378
 20
-110.773
 11
99.378
 21
-112.123
  0
LINE
  8
0
 10
99.378
 20
-112.123
 11
99.378
 21
-140.597
  0
LINE
  8
0
 10
99.378
 20
-140.597
 11
74.4
 21
-142.905
  0
LINE
  8
0
 10
74.4
 20
-142.905
 11
74.4
 21
-103.632
  0
LINE
  8
0
 10
47.203
 20
-106.039
 11
47.352
 21
-105.021
  0
LINE
  8
0
 10
47.352
 20
-105.021
 11
49.736
 21
-104.807
  0
LINE
  8
0
 10
49.736
 20
-104.807
 11
49.641
 21
-123.238
  0
LINE
  8
0
 10
49.641
 20
-123.238
 11
50.611
 21
-121.362
  0
LINE
  8
0
 10
50.611
 20
-121.362
 11
51.874
 21
-119.659
  0
LINE
  8
0
 10
51.874
 20
-119.659
 11
53.277
 21
-118.634
  0
LINE
  8
0
 10
53.277
 20
-118.634
 11
53.985
 21
-118.533
  0
LINE
  8
0
 10
53.985
 20
-118.533
 11
54.672
 21
-118.792
  0
LINE
  8
0
 10
54.672
 20
-118.792
 11
57.788
 21
-120.662
  0
LINE
  8
0
 10
57.788
 20
-120.662
 11
61.318
 21
-121.976
  0
LINE
  8
0
 10
61.318
 20
-121.976
 11
63.213
 21
-122.286
  0
LINE
  8
0
 10
63.213
 20
-122.286
 11
65.181
 21
-122.29
  0
LINE
  8
0
 10
65.181
 20
-122.29
 11
67.212
 21
-121.934
  0
LINE
  8
0
 10
67.212
 20
-121.934
 11
69.296
 21
-121.16
  0
LINE
  8
0
 10
69.296
 20
-121.16
 11
70.895
 21
-120.441
  0
LINE
  8
0
 10
70.895
 20
-120.441
 11
68.263
 21
-143.475
  0
LINE
  8
0
 10
68.263
 20
-143.475
 11
47.203
 21
-145.418
  0
LINE
  8
0
 10
47.203
 20
-145.418
 11
47.203
 21
-106.039
  0
LINE
  8
0
 10
-17.586
 20
-111.185
 11
-15.156
 21
-110.933
  0
LINE
  8
0
 10
-15.156
 20
-110.933
 11
-14.866
 21
-124.202
  0
LINE
  8
0
 10
-14.866
 20
-124.202
 11
-11.142
 21
-121.392
  0
LINE
  8
0
 10
-11.142
 20
-121.392
 11
-7.293
 21
-119.133
  0
LINE
  8
0
 10
-7.293
 20
-119.133
 11
-5.29099
 21
-118.358
  0
LINE
  8
0
 10
-5.29099
 20
-118.358
 11
-3.22099
 21
-117.898
  0
LINE
  8
0
 10
-3.22099
 20
-117.898
 11
-1.071
 21
-117.811
  0
LINE
  8
0
 10
-1.071
 20
-117.811
 11
1.17
 21
-118.157
  0
LINE
  8
0
 10
1.17
 20
-118.157
 11
5.84698
 21
-119.718
  0
LINE
  8
0
 10
5.84698
 20
-119.718
 11
9.534
 21
-121.581
  0
LINE
  8
0
 10
9.534
 20
-121.581
 11
9.534
 21
-148.889
  0
LINE
  8
0
 10
9.534
 20
-148.889
 11
-17.601
 21
-151.395
  0
LINE
  8
0
 10
-17.601
 20
-151.395
 11
-17.586
 21
-111.185
  0
LINE
  8
0
 10
-47.182
 20
-119.81
 11
-46.979
 21
-113.508
  0
LINE
  8
0
 10
-46.979
 20
-113.508
 11
-43.975
 21
-113.244
  0
LINE
  8
0
 10
-43.975
 20
-113.244
 11
-44.079
 21
-132.107
  0
LINE
  8
0
 10
-44.079
 20
-132.107
 11
-43.106
 21
-130.031
  0
LINE
  8
0
 10
-43.106
 20
-130.031
 11
-41.781
 21
-128.372
  0
LINE
  8
0
 10
-41.781
 20
-128.372
 11
-40.288
 21
-127.495
  0
LINE
  8
0
 10
-40.288
 20
-127.495
 11
-39.537
 21
-127.463
  0
LINE
  8
0
 10
-39.537
 20
-127.463
 11
-38.814
 21
-127.764
  0
LINE
  8
0
 10
-38.814
 20
-127.764
 11
-35.545
 21
-129.723
  0
LINE
  8
0
 10
-35.545
 20
-129.723
 11
-31.84
 21
-131.1
  0
LINE
  8
0
 10
-31.84
 20
-131.1
 11
-29.851
 21
-131.425
  0
LINE
  8
0
 10
-29.851
 20
-131.425
 11
-27.786
 21
-131.429
  0
LINE
  8
0
 10
-27.786
 20
-131.429
 11
-25.655
 21
-131.055
  0
LINE
  8
0
 10
-25.655
 20
-131.055
 11
-23.471
 21
-130.244
  0
LINE
  8
0
 10
-23.471
 20
-130.244
 11
-21.156
 21
-129.207
  0
LINE
  8
0
 10
-21.156
 20
-129.207
 11
-23.8
 21
-151.961
  0
LINE
  8
0
 10
-23.8
 20
-151.961
 11
-47.182
 21
-154.119
  0
LINE
  8
0
 10
-47.182
 20
-154.119
 11
-47.182
 21
-119.81
  0
LINE
  8
0
 10
43.084
 20
-190.638
 11
40.812
 21
-190.147
  0
LINE
  8
0
 10
40.812
 20
-190.147
 11
39.343
 21
-189.455
  0
LINE
  8
0
 10
39.343
 20
-189.455
 11
38.502
 21
-188.695
  0
LINE
  8
0
 10
38.502
 20
-188.695
 11
38.115
 21
-187.998
  0
LINE
  8
0
 10
38.115
 20
-187.998
 11
37.997
 21
-187.327
  0
LINE
  8
0
 10
37.997
 20
-187.327
 11
37.997
 21
-172.711
  0
LINE
  8
0
 10
37.997
 20
-172.711
 11
38.173
 21
-170.327
  0
LINE
  8
0
 10
38.173
 20
-170.327
 11
38.678
 21
-168.031
  0
LINE
  8
0
 10
38.678
 20
-168.031
 11
39.053
 21
-166.864
  0
LINE
  8
0
 10
39.053
 20
-166.864
 11
40.28
 21
-164.229
  0
LINE
  8
0
 10
40.28
 20
-164.229
 11
41.908
 21
-161.871
  0
LINE
  8
0
 10
41.908
 20
-161.871
 11
43.87
 21
-159.865
  0
LINE
  8
0
 10
43.87
 20
-159.865
 11
46.124
 21
-158.263
  0
LINE
  8
0
 10
46.124
 20
-158.263
 11
48.593
 21
-157.152
  0
LINE
  8
0
 10
48.593
 20
-157.152
 11
51.236
 21
-156.568
  0
LINE
  8
0
 10
51.236
 20
-156.568
 11
87.907
 21
-152.639
  0
LINE
  8
0
 10
87.907
 20
-152.639
 11
98.976
 21
-151.456
  0
LINE
  8
0
 10
98.976
 20
-151.456
 11
101.516
 21
-151.483
  0
LINE
  8
0
 10
101.516
 20
-151.483
 11
103.87
 21
-152.068
  0
LINE
  8
0
 10
103.87
 20
-152.068
 11
105.996
 21
-153.147
  0
LINE
  8
0
 10
105.996
 20
-153.147
 11
107.853
 21
-154.686
  0
LINE
  8
0
 10
107.853
 20
-154.686
 11
109.37
 21
-156.638
  0
LINE
  8
0
 10
109.37
 20
-156.638
 11
110.512
 21
-158.929
  0
LINE
  8
0
 10
110.512
 20
-158.929
 11
110.78
 21
-159.69
  0
LINE
  8
0
 10
110.78
 20
-159.69
 11
111.312
 21
-161.937
  0
LINE
  8
0
 10
111.312
 20
-161.937
 11
111.503
 21
-164.347
  0
LINE
  8
0
 10
111.503
 20
-164.347
 11
111.503
 21
-182.782
  0
LINE
  8
0
 10
111.503
 20
-182.782
 11
99.374
 21
-184.358
  0
LINE
  8
0
 10
99.374
 20
-184.358
 11
50.739
 21
-190.488
  0
LINE
  8
0
 10
50.739
 20
-190.488
 11
46.335
 21
-190.796
  0
LINE
  8
0
 10
46.335
 20
-190.796
 11
43.084
 21
-190.638
  0
LINE
  8
0
 10
45.662
 20
-164.318
 11
48.732
 21
-163.377
  0
LINE
  8
0
 10
48.732
 20
-163.377
 11
56.615
 21
-161.978
  0
LINE
  8
0
 10
56.615
 20
-161.978
 11
67.876
 21
-160.888
  0
LINE
  8
0
 10
67.876
 20
-160.888
 11
62.468
 21
-159.771
  0
LINE
  8
0
 10
62.468
 20
-159.771
 11
57.286
 21
-159.122
  0
LINE
  8
0
 10
57.286
 20
-159.122
 11
51.852
 21
-159.078
  0
LINE
  8
0
 10
51.852
 20
-159.078
 11
49.88
 21
-159.484
  0
LINE
  8
0
 10
49.88
 20
-159.484
 11
48.198
 21
-160.266
  0
LINE
  8
0
 10
48.198
 20
-160.266
 11
45.667
 21
-162.427
  0
LINE
  8
0
 10
45.667
 20
-162.427
 11
44.197
 21
-164.502
  0
LINE
  8
0
 10
44.197
 20
-164.502
 11
43.721
 21
-165.43
  0
LINE
  8
0
 10
43.721
 20
-165.43
 11
45.662
 21
-164.318
  0
LINE
  8
0
 10
56.115
 20
-186.749
 11
55.19
 21
-184.631
  0
LINE
  8
0
 10
55.19
 20
-184.631
 11
54.492
 21
-182.385
  0
LINE
  8
0
 10
54.492
 20
-182.385
 11
54.044
 21
-179.704
  0
LINE
  8
0
 10
54.044
 20
-179.704
 11
54.15
 21
-176.858
  0
LINE
  8
0
 10
54.15
 20
-176.858
 11
55.115
 21
-174.113
  0
LINE
  8
0
 10
55.115
 20
-174.113
 11
56.016
 21
-172.863
  0
LINE
  8
0
 10
56.016
 20
-172.863
 11
57.245
 21
-171.739
  0
LINE
  8
0
 10
57.245
 20
-171.739
 11
58.842
 21
-170.774
  0
LINE
  8
0
 10
58.842
 20
-170.774
 11
60.844
 21
-170.002
  0
LINE
  8
0
 10
60.844
 20
-170.002
 11
68.1
 21
-168.468
  0
LINE
  8
0
 10
68.1
 20
-168.468
 11
80.07
 21
-166.279
  0
LINE
  8
0
 10
80.07
 20
-166.279
 11
98.371
 21
-163.326
  0
LINE
  8
0
 10
98.371
 20
-163.326
 11
107.122
 21
-162.108
  0
LINE
  8
0
 10
107.122
 20
-162.108
 11
105.851
 21
-161.8
  0
LINE
  8
0
 10
105.851
 20
-161.8
 11
102.239
 21
-161.219
  0
LINE
  8
0
 10
102.239
 20
-161.219
 11
96.588
 21
-160.878
  0
LINE
  8
0
 10
96.588
 20
-160.878
 11
89.2
 21
-161.293
  0
LINE
  8
0
 10
89.2
 20
-161.293
 11
85.309
 21
-161.764
  0
LINE
  8
0
 10
85.309
 20
-161.764
 11
85.293
 21
-161.764
  0
LINE
  8
0
 10
85.293
 20
-161.764
 11
60.721
 21
-164.664
  0
LINE
  8
0
 10
60.721
 20
-164.664
 11
53.378
 21
-165.778
  0
LINE
  8
0
 10
53.378
 20
-165.778
 11
48.326
 21
-166.887
  0
LINE
  8
0
 10
48.326
 20
-166.887
 11
45.046
 21
-168.219
  0
LINE
  8
0
 10
45.046
 20
-168.219
 11
43.021
 21
-170.002
  0
LINE
  8
0
 10
43.021
 20
-170.002
 11
42.549
 21
-171.152
  0
LINE
  8
0
 10
42.549
 20
-171.152
 11
42.209
 21
-172.996
  0
LINE
  8
0
 10
42.209
 20
-172.996
 11
41.865
 21
-177.872
  0
LINE
  8
0
 10
41.865
 20
-177.872
 11
42.095
 21
-186.129
  0
LINE
  8
0
 10
42.095
 20
-186.129
 11
42.831
 21
-187
  0
LINE
  8
0
 10
42.831
 20
-187
 11
44.481
 21
-187.466
  0
LINE
  8
0
 10
44.481
 20
-187.466
 11
49.278
 21
-187.541
  0
LINE
  8
0
 10
49.278
 20
-187.541
 11
56.115
 21
-186.749
  0
LINE
  8
0
 10
-56.776
 20
-202.79
 11
-58.103
 21
-202.391
  0
LINE
  8
0
 10
-58.103
 20
-202.391
 11
-59.366
 21
-201.694
  0
LINE
  8
0
 10
-59.366
 20
-201.694
 11
-60.434
 21
-200.621
  0
LINE
  8
0
 10
-60.434
 20
-200.621
 11
-61.174
 21
-199.096
  0
LINE
  8
0
 10
-61.174
 20
-199.096
 11
-61.174
 21
-188.632
  0
LINE
  8
0
 10
-61.174
 20
-188.632
 11
-103.263
 21
-156.939
  0
LINE
  8
0
 10
-103.263
 20
-156.939
 11
-61.086
 21
-181.959
  0
LINE
  8
0
 10
-61.086
 20
-181.959
 11
-60.57
 21
-179.522
  0
LINE
  8
0
 10
-60.57
 20
-179.522
 11
-60.03
 21
-177.861
  0
LINE
  8
0
 10
-60.03
 20
-177.861
 11
-58.692
 21
-175.1
  0
LINE
  8
0
 10
-58.692
 20
-175.1
 11
-56.92
 21
-172.638
  0
LINE
  8
0
 10
-56.92
 20
-172.638
 11
-54.773
 21
-170.526
  0
LINE
  8
0
 10
-54.773
 20
-170.526
 11
-52.324
 21
-168.85
  0
LINE
  8
0
 10
-52.324
 20
-168.85
 11
-49.612
 21
-167.667
  0
LINE
  8
0
 10
-49.612
 20
-167.667
 11
-46.719
 21
-167.056
  0
LINE
  8
0
 10
-46.719
 20
-167.056
 11
5.33699
 21
-161.473
  0
LINE
  8
0
 10
5.33699
 20
-161.473
 11
8.09599
 21
-161.476
  0
LINE
  8
0
 10
8.09599
 20
-161.476
 11
10.667
 21
-162.078
  0
LINE
  8
0
 10
10.667
 20
-162.078
 11
12.979
 21
-163.203
  0
LINE
  8
0
 10
12.979
 20
-163.203
 11
14.986
 21
-164.798
  0
LINE
  8
0
 10
14.986
 20
-164.798
 11
16.649
 21
-166.823
  0
LINE
  8
0
 10
16.649
 20
-166.823
 11
17.91
 21
-169.206
  0
LINE
  8
0
 10
17.91
 20
-169.206
 11
18.319
 21
-170.396
  0
LINE
  8
0
 10
18.319
 20
-170.396
 11
18.801
 21
-172.55
  0
LINE
  8
0
 10
18.801
 20
-172.55
 11
18.97
 21
-174.85
  0
LINE
  8
0
 10
18.97
 20
-174.85
 11
18.97
 21
-194.555
  0
LINE
  8
0
 10
18.97
 20
-194.555
 11
16.594
 21
-194.823
  0
LINE
  8
0
 10
16.594
 20
-194.823
 11
-50.239
 21
-202.555
  0
LINE
  8
0
 10
-50.239
 20
-202.555
 11
-53.445
 21
-202.93
  0
LINE
  8
0
 10
-53.445
 20
-202.93
 11
-54.453
 21
-202.997
  0
LINE
  8
0
 10
-54.453
 20
-202.997
 11
-56.776
 21
-202.79
  0
LINE
  8
0
 10
-21.826
 20
-171.636
 11
-23.469
 21
-171.314
  0
LINE
  8
0
 10
-23.469
 20
-171.314
 11
-28.366
 21
-170.708
  0
LINE
  8
0
 10
-28.366
 20
-170.708
 11
-36.461
 21
-170.354
  0
LINE
  8
0
 10
-36.461
 20
-170.354
 11
-47.695
 21
-170.782
  0
LINE
  8
0
 10
-47.695
 20
-170.782
 11
-49.209
 21
-171.104
  0
LINE
  8
0
 10
-49.209
 20
-171.104
 11
-50.565
 21
-171.748
  0
LINE
  8
0
 10
-50.565
 20
-171.748
 11
-52.751
 21
-173.552
  0
LINE
  8
0
 10
-52.751
 20
-173.552
 11
-54.632
 21
-176.074
  0
LINE
  8
0
 10
-54.632
 20
-176.074
 11
-21.826
 21
-171.636
  0
LINE
  8
0
 10
-39.056
 20
-198.272
 11
-26.157
 21
-196.847
  0
LINE
  8
0
 10
-26.157
 20
-196.847
 11
-26.97
 21
-196.525
  0
LINE
  8
0
 10
-26.97
 20
-196.525
 11
-28.585
 21
-195.17
  0
LINE
  8
0
 10
-28.585
 20
-195.17
 11
-29.305
 21
-193.923
  0
LINE
  8
0
 10
-29.305
 20
-193.923
 11
-29.761
 21
-192.199
  0
LINE
  8
0
 10
-29.761
 20
-192.199
 11
-29.798
 21
-189.925
  0
LINE
  8
0
 10
-29.798
 20
-189.925
 11
-29.26
 21
-187.029
  0
LINE
  8
0
 10
-29.26
 20
-187.029
 11
-28.161
 21
-184.893
  0
LINE
  8
0
 10
-28.161
 20
-184.893
 11
-26.222
 21
-183.041
  0
LINE
  8
0
 10
-26.222
 20
-183.041
 11
-23.619
 21
-181.447
  0
LINE
  8
0
 10
-23.619
 20
-181.447
 11
-20.53
 21
-180.083
  0
LINE
  8
0
 10
-20.53
 20
-180.083
 11
-13.599
 21
-177.937
  0
LINE
  8
0
 10
-13.599
 20
-177.937
 11
-6.842
 21
-176.388
  0
LINE
  8
0
 10
-6.842
 20
-176.388
 11
6.63799
 21
-174.102
  0
LINE
  8
0
 10
6.63799
 20
-174.102
 11
13.919
 21
-173.128
  0
LINE
  8
0
 10
13.919
 20
-173.128
 11
12.647
 21
-172.82
  0
LINE
  8
0
 10
12.647
 20
-172.82
 11
9.03299
 21
-172.239
  0
LINE
  8
0
 10
9.03299
 20
-172.239
 11
3.38199
 21
-171.901
  0
LINE
  8
0
 10
3.38199
 20
-171.901
 11
-4.00299
 21
-172.321
  0
LINE
  8
0
 10
-4.00299
 20
-172.321
 11
-6.02699
 21
-172.562
  0
LINE
  8
0
 10
-6.02699
 20
-172.562
 11
-8.20799
 21
-172.814
  0
LINE
  8
0
 10
-8.20799
 20
-172.814
 11
-8.23099
 21
-172.814
  0
LINE
  8
0
 10
-8.23099
 20
-172.814
 11
-28.189
 21
-175.369
  0
LINE
  8
0
 10
-28.189
 20
-175.369
 11
-43.935
 21
-177.855
  0
LINE
  8
0
 10
-43.935
 20
-177.855
 11
-50.566
 21
-179.195
  0
LINE
  8
0
 10
-50.566
 20
-179.195
 11
-55.347
 21
-180.52
  0
LINE
  8
0
 10
-55.347
 20
-180.52
 11
-56.309
 21
-181.339
  0
LINE
  8
0
 10
-56.309
 20
-181.339
 11
-57.024
 21
-182.884
  0
LINE
  8
0
 10
-57.024
 20
-182.884
 11
-57.846
 21
-187.43
  0
LINE
  8
0
 10
-57.846
 20
-187.43
 11
-58.078
 21
-192.708
  0
LINE
  8
0
 10
-58.078
 20
-192.708
 11
-57.983
 21
-197.268
  0
LINE
  8
0
 10
-57.983
 20
-197.268
 11
-57.571
 21
-198.768
  0
LINE
  8
0
 10
-57.571
 20
-198.768
 11
-56.66
 21
-199.517
  0
LINE
  8
0
 10
-56.66
 20
-199.517
 11
-55.471
 21
-199.767
  0
LINE
  8
0
 10
-55.471
 20
-199.767
 11
-54.226
 21
-199.77
  0
LINE
  8
0
 10
-54.226
 20
-199.77
 11
-39.056
 21
-198.272
  0
LINE
  8
0
 10
-62.637
 20
-217.642
 11
-63.319
 21
-217.212
  0
LINE
  8
0
 10
-63.319
 20
-217.212
 11
-64.181
 21
-215.77
  0
LINE
  8
0
 10
-64.181
 20
-215.77
 11
-64.309
 21
-213.827
  0
LINE
  8
0
 10
-64.309
 20
-213.827
 11
-63.619
 21
-211.715
  0
LINE
  8
0
 10
-63.619
 20
-211.715
 11
-113.219
 21
-173.296
  0
LINE
  8
0
 10
-113.219
 20
-173.296
 11
-59.322
 21
-208.13
  0
LINE
  8
0
 10
-59.322
 20
-208.13
 11
-57.394
 21
-207.878
  0
LINE
  8
0
 10
-57.394
 20
-207.878
 11
21.445
 21
-198.079
  0
LINE
  8
0
 10
21.445
 20
-198.079
 11
22.482
 21
-198.182
  0
LINE
  8
0
 10
22.482
 20
-198.182
 11
23.335
 21
-198.748
  0
LINE
  8
0
 10
23.335
 20
-198.748
 11
23.902
 21
-199.651
  0
LINE
  8
0
 10
23.902
 20
-199.651
 11
24.12
 21
-200.834
  0
LINE
  8
0
 10
24.12
 20
-200.834
 11
24.12
 21
-203.707
  0
LINE
  8
0
 10
24.12
 20
-203.707
 11
24.124
 21
-203.707
  0
LINE
  8
0
 10
24.124
 20
-203.707
 11
23.905
 21
-204.931
  0
LINE
  8
0
 10
23.905
 20
-204.931
 11
23.339
 21
-205.991
  0
LINE
  8
0
 10
23.339
 20
-205.991
 11
22.486
 21
-206.753
  0
LINE
  8
0
 10
22.486
 20
-206.753
 11
21.449
 21
-207.143
  0
LINE
  8
0
 10
21.449
 20
-207.143
 11
-61.802
 21
-217.822
  0
LINE
  8
0
 10
-61.802
 20
-217.822
 11
-62.637
 21
-217.642
  0
LINE
  8
0
 10
34.542
 20
-205.218
 11
33.697
 21
-204.664
  0
LINE
  8
0
 10
33.697
 20
-204.664
 11
33.123
 21
-203.768
  0
LINE
  8
0
 10
33.123
 20
-203.768
 11
32.92
 21
-202.594
  0
LINE
  8
0
 10
32.92
 20
-202.594
 11
32.92
 21
-199.732
  0
LINE
  8
0
 10
32.92
 20
-199.732
 11
33.123
 21
-198.523
  0
LINE
  8
0
 10
33.123
 20
-198.523
 11
33.697
 21
-197.463
  0
LINE
  8
0
 10
33.697
 20
-197.463
 11
34.542
 21
-196.686
  0
LINE
  8
0
 10
34.542
 20
-196.686
 11
35.575
 21
-196.326
  0
LINE
  8
0
 10
35.575
 20
-196.326
 11
97.839
 21
-188.586
  0
LINE
  8
0
 10
97.839
 20
-188.586
 11
98.7
 21
-188.475
  0
LINE
  8
0
 10
98.7
 20
-188.475
 11
100.001
 21
-188.333
  0
LINE
  8
0
 10
100.001
 20
-188.333
 11
105.507
 21
-187.637
  0
LINE
  8
0
 10
105.507
 20
-187.637
 11
110.596
 21
-187.002
  0
LINE
  8
0
 10
110.596
 20
-187.002
 11
113.776
 21
-186.6
  0
LINE
  8
0
 10
113.776
 20
-186.6
 11
114.725
 21
-186.726
  0
LINE
  8
0
 10
114.725
 20
-186.726
 11
115.517
 21
-187.258
  0
LINE
  8
0
 10
115.517
 20
-187.258
 11
116.025
 21
-188.146
  0
LINE
  8
0
 10
116.025
 20
-188.146
 11
116.228
 21
-189.282
  0
LINE
  8
0
 10
116.228
 20
-189.282
 11
116.228
 21
-192.026
  0
LINE
  8
0
 10
116.228
 20
-192.026
 11
116.025
 21
-193.185
  0
LINE
  8
0
 10
116.025
 20
-193.185
 11
115.517
 21
-194.21
  0
LINE
  8
0
 10
115.517
 20
-194.21
 11
114.725
 21
-194.941
  0
LINE
  8
0
 10
114.725
 20
-194.941
 11
113.776
 21
-195.293
  0
LINE
  8
0
 10
113.776
 20
-195.293
 11
35.575
 21
-205.322
  0
LINE
  8
0
 10
35.575
 20
-205.322
 11
34.542
 21
-205.218
  0
ENDSEC
  0
SECTION
  2
OBJECTS
  0
DICTIONARY
  0
ENDSEC
  0
EOF
