<?xml version="1.0" encoding="utf-8"?>
<svg xmlns="http://www.w3.org/2000/svg" version="1.0" width="500pt" height="460pt" viewBox="0 0 500 460" id="svg2">
  <path transform="matrix(23.2938696358586,0,0,23.2938696358586,-5880.23882622191,-4724.88490499013)" clip-path="url(#SVG_CP_1)" fill="#000000" stroke="#000000" stroke-width="0.11" fill-opacity="0.13" stroke-miterlimit="10" stroke-linejoin="round" d=" M259.16258,209.56526L259.52258,209.97915L259.53158,209.97915L259.63958,209.97915L260.11658,209.0254L260.59358,208.43155L 260.59358,208.42255L260.60258,208.39556L260.76458,208.2336L261.84457,209.20535L261.90757,209.25934L262.61857,208.66549L262.73556,208.90843 L262.78956,208.87244L263.07756,208.68349L263.09556,208.66549L264.04956,207.4778L265.00355,208.18861L265.07555,208.21561L 265.36355,208.30558L265.59755,207.82871L267.15454,209.0254L267.17254,209.0344L268.34253,209.50228L268.70253,209.50228L268.93653,209.61925 L269.06253,209.86218L269.06253,210.21309L269.17953,210.81594L270.13352,211.29282L270.12452,211.30182L269.65653,212.48051 L269.99852,212.9394L270.01652,212.95739L270.49352,213.07436L271.56452,213.20033L271.68152,213.07436L271.79851,213.07436L 272.04151,213.20033L272.40151,214.02812L272.63551,214.15408L272.75251,215.22481L272.63551,215.22481L271.70852,215.45875L 271.68152,215.45875L271.44752,215.22481L270.84452,215.10784L270.13352,215.10784L270.07952,215.15283L270.01652,215.22481L 269.53953,216.0616L269.65653,216.41251L269.86353,216.62845L269.89053,216.65544L269.86353,216.93437L269.77353,217.72617L269.31453,217.96011 L269.29653,217.96911L269.17953,218.08608L268.70253,218.56295L267.15454,218.20305L267.02854,218.20305L266.80354,218.11307 L266.43454,217.96911L265.95755,217.72617L265.89455,217.91512L265.59755,218.79689L265.46255,218.86888L265.36355,218.92286 L265.24655,218.44598L264.78755,217.65419L264.76955,217.6092L264.53555,217.56421L264.16656,217.49223L262.97856,217.24929L 262.61857,217.24929L262.14157,218.20305L262.03357,218.62594L262.02457,218.67992L262.02457,219.99359L262.01557,220.03858L 261.90757,221.9011L261.78157,222.01807L261.07057,221.54119L261.02557,221.46921L260.59358,220.83937L260.59358,220.83037L259.99958,219.75065 L259.16258,218.79689L259.04558,218.08608L258.56859,218.08608L258.20859,217.36626L258.32559,217.24929L258.21759,217.2043L 256.7776,216.65544L256.8946,215.70169L257.1016,215.18882L257.1196,215.13483L257.13759,215.10784L257.24559,213.87516L257.25459,213.79418 L256.4176,213.43427L256.3186,213.24532L256.3186,213.23632L256.3006,213.20033L255.9406,212.12061L254.86961,212.24657L254.66261,211.93165 L254.62661,211.88667L254.86961,211.40979L255.22961,211.04988L255.22961,210.573L254.98661,210.33906L254.86961,209.97915L254.39261,209.25934 L254.75261,208.30558L255.7066,207.95467L255.7066,207.59477L256.4176,207.11789L256.4536,207.0909L257.13759,206.64101L257.37159,207.35183 L257.96559,208.43155L257.97459,208.44055L258.44259,209.0254L258.50559,209.04339L258.80259,209.14237L259.16258,209.56526"/>
</svg>
